<svg xmlns="http://www.w3.org/2000/svg" xmlns:xlink="http://www.w3.org/1999/xlink" width="400" zoomAndPan="magnify" viewBox="0 0 300 299.999988" height="400" preserveAspectRatio="xMidYMid meet" version="1.0"><defs><clipPath id="db71818bec"><path d="M 24.601562 82.933594 L 203.835938 82.933594 L 203.835938 249.179688 L 24.601562 249.179688 Z M 24.601562 82.933594 " clip-rule="nonzero"/></clipPath><clipPath id="b5ef1d1a8f"><path d="M 114.152344 82.933594 C 64.695312 82.933594 24.601562 120.148438 24.601562 166.054688 C 24.601562 211.964844 64.695312 249.179688 114.152344 249.179688 C 163.609375 249.179688 203.703125 211.964844 203.703125 166.054688 C 203.703125 120.148438 163.609375 82.933594 114.152344 82.933594 Z M 114.152344 82.933594 " clip-rule="nonzero"/></clipPath><clipPath id="dfe21af9d0"><path d="M 0.601562 0.933594 L 179.761719 0.933594 L 179.761719 167.179688 L 0.601562 167.179688 Z M 0.601562 0.933594 " clip-rule="nonzero"/></clipPath><clipPath id="54d7067c96"><path d="M 90.152344 0.933594 C 40.695312 0.933594 0.601562 38.148438 0.601562 84.054688 C 0.601562 129.964844 40.695312 167.179688 90.152344 167.179688 C 139.609375 167.179688 179.703125 129.964844 179.703125 84.054688 C 179.703125 38.148438 139.609375 0.933594 90.152344 0.933594 Z M 90.152344 0.933594 " clip-rule="nonzero"/></clipPath><clipPath id="0bebee56bf"><rect x="0" width="180" y="0" height="168"/></clipPath><clipPath id="2ad139f834"><path d="M 91.839844 43.34375 L 257.589844 43.34375 L 257.589844 256.34375 L 91.839844 256.34375 Z M 91.839844 43.34375 " clip-rule="nonzero"/></clipPath></defs><g clip-path="url(#db71818bec)"><g clip-path="url(#b5ef1d1a8f)"><g transform="matrix(1, 0, 0, 1, 24, 82)"><g clip-path="url(#0bebee56bf)"><g clip-path="url(#dfe21af9d0)"><g clip-path="url(#54d7067c96)"><path fill="#8aff58" d="M 0.601562 0.933594 L 179.835938 0.933594 L 179.835938 167.179688 L 0.601562 167.179688 Z M 0.601562 0.933594 " fill-opacity="1" fill-rule="nonzero"/></g></g></g></g></g></g><g clip-path="url(#2ad139f834)"><path fill="#000000" d="M 256.644531 169.578125 C 256.351562 166.738281 255.929688 163.894531 255.320312 161.105469 C 254.527344 157.460938 252.757812 154.335938 249.996094 151.75 C 247.320312 149.25 244.457031 147.007812 241.5 144.855469 C 237.933594 142.253906 234.382812 139.628906 230.320312 137.820312 C 230.117188 137.730469 229.925781 137.566406 229.773438 137.386719 C 228.984375 136.46875 228.230469 135.527344 227.429688 134.621094 C 225.582031 132.542969 223.699219 130.480469 221.824219 128.425781 C 221.6875 128.273438 221.496094 128.070312 221.316406 128.070312 C 220.871094 128.042969 220.859375 127.789062 220.859375 127.457031 C 220.84375 126.628906 220.628906 125.890625 219.863281 125.40625 C 219.445312 125.140625 219.074219 124.808594 218.667969 124.539062 C 216.402344 123.023438 214.132812 121.519531 211.878906 120.003906 C 211.675781 119.863281 211.535156 119.644531 211.308594 119.390625 C 211.957031 119.441406 212.453125 119.558594 212.949219 119.507812 C 213.839844 119.402344 214.492188 118.832031 215.140625 118.257812 C 215.851562 117.632812 216.539062 116.984375 217.304688 116.433594 C 218.285156 115.722656 219.433594 115.183594 220.324219 114.382812 C 221.710938 113.144531 222.996094 111.808594 224.234375 110.417969 C 225.199219 109.324219 226.015625 108.074219 226.957031 106.824219 C 227.148438 107.054688 227.300781 107.320312 227.53125 107.476562 C 227.683594 107.578125 227.953125 107.539062 228.167969 107.5625 C 228.128906 107.375 228.15625 107.15625 228.054688 107.015625 C 227.53125 106.175781 226.96875 105.347656 226.410156 104.492188 C 227.210938 104.851562 227.9375 105.230469 228.714844 105.511719 C 228.945312 105.589844 229.25 105.421875 229.53125 105.371094 C 229.453125 105.117188 229.453125 104.8125 229.300781 104.632812 C 228.984375 104.261719 228.574219 103.957031 228.207031 103.625 C 227.761719 103.230469 227.316406 102.835938 226.867188 102.441406 C 227.492188 102.542969 228.054688 102.734375 228.625 102.898438 C 228.753906 102.9375 228.984375 102.886719 229.046875 102.796875 C 229.109375 102.695312 229.097656 102.464844 229.019531 102.363281 C 228.882812 102.160156 228.675781 101.980469 228.484375 101.804688 C 227.390625 100.734375 226.296875 99.664062 225.199219 98.578125 C 225.097656 98.476562 224.996094 98.324219 224.996094 98.195312 C 225.007812 97.34375 225.046875 96.488281 225.074219 95.710938 C 225.925781 95.761719 226.679688 95.8125 227.417969 95.839844 C 227.554688 95.839844 227.773438 95.722656 227.824219 95.609375 C 227.863281 95.507812 227.761719 95.277344 227.644531 95.1875 C 227.378906 94.960938 227.058594 94.757812 226.765625 94.550781 C 226.144531 94.117188 225.519531 93.671875 224.894531 93.238281 C 225.46875 93.355469 225.953125 93.609375 226.472656 93.761719 C 226.984375 93.925781 227.53125 93.992188 228.054688 94.09375 C 228.105469 94.015625 228.140625 93.941406 228.191406 93.863281 C 227.582031 93.074219 226.972656 92.285156 226.359375 91.480469 C 226.5 91.402344 226.691406 91.351562 226.78125 91.238281 C 228.550781 88.792969 229.707031 86.167969 229.148438 83.042969 C 228.917969 81.742188 228.371094 80.660156 227.316406 79.832031 C 226.945312 79.539062 226.613281 79.132812 226.4375 78.710938 C 225.761719 77.167969 225.542969 75.523438 225.351562 73.855469 C 225.113281 71.765625 224.714844 69.699219 224.347656 67.636719 C 223.839844 64.742188 223.046875 61.914062 221.851562 59.222656 C 220.4375 56.023438 218.296875 53.398438 215.675781 51.132812 C 212.835938 48.683594 209.726562 46.761719 206.085938 45.804688 C 204.710938 45.445312 203.296875 45.066406 201.84375 45.359375 C 201.488281 45.433594 201.082031 45.5625 200.75 45.472656 C 199.792969 45.207031 198.878906 44.796875 197.921875 44.53125 C 194.484375 43.535156 190.957031 43.34375 187.453125 44.007812 C 185.007812 44.464844 182.589844 45.21875 180.246094 46.058594 C 177.0625 47.21875 174.042969 48.785156 171.523438 51.105469 C 167.664062 54.648438 164.902344 58.957031 163.015625 63.851562 C 162.367188 65.53125 161.894531 67.214844 162.097656 69.050781 C 162.304688 70.9375 162.417969 72.824219 162.570312 74.707031 C 162.648438 75.753906 162.722656 76.800781 162.8125 77.933594 C 162.316406 78.0625 161.742188 78.1875 161.167969 78.339844 C 157.820312 79.207031 154.445312 80.035156 151.339844 81.605469 C 150.484375 82.023438 149.695312 82.625 148.996094 83.273438 C 148.179688 84.023438 148.191406 85.183594 149.019531 85.886719 C 149.695312 86.460938 150.484375 86.945312 151.300781 87.261719 C 153.210938 88.027344 155.210938 88.484375 157.335938 88.472656 C 156.953125 89.914062 157.234375 91.238281 157.78125 92.527344 C 158.011719 93.0625 158.304688 93.558594 158.484375 94.105469 C 159.324219 96.578125 160.40625 98.910156 162.113281 100.910156 C 163.15625 102.148438 164.390625 103.179688 166.148438 102.835938 C 167.652344 102.542969 168.976562 101.777344 170.136719 100.757812 C 170.734375 100.222656 171.359375 99.726562 171.980469 99.214844 C 171.929688 99.472656 171.878906 99.726562 171.867188 99.980469 C 171.753906 101.652344 172.734375 102.683594 174.464844 102.261719 C 175.089844 102.109375 175.699219 101.90625 176.285156 101.652344 C 176.488281 101.5625 176.605469 101.269531 176.769531 101.066406 C 176.539062 100.976562 176.296875 100.785156 176.082031 100.796875 C 175.40625 100.847656 174.71875 100.960938 174.042969 101.066406 C 173.355469 101.179688 173.140625 100.785156 173.152344 100.210938 C 173.179688 99.332031 173.203125 98.4375 173.304688 97.558594 C 173.5625 95.546875 173.867188 93.53125 174.144531 91.507812 C 174.019531 91.59375 173.957031 91.699219 173.917969 91.8125 C 173.574219 93.125 173.242188 94.4375 172.871094 95.75 C 172.644531 96.566406 172.578125 97.523438 172.109375 98.171875 C 170.859375 99.90625 169.179688 101.191406 167.089844 101.816406 C 166.453125 102.007812 165.742188 102.1875 165.105469 102.085938 C 163.652344 101.84375 162.785156 100.707031 161.960938 99.597656 C 160.1875 97.226562 159.273438 94.476562 158.46875 91.671875 C 158.265625 90.984375 158.074219 90.230469 158.164062 89.542969 C 158.378906 87.9375 159.449219 86.90625 160.789062 86.113281 C 162.953125 84.828125 165.320312 84.011719 167.675781 83.195312 C 172.476562 81.527344 177.457031 80.648438 182.449219 79.894531 C 184.335938 79.617188 186.230469 79.425781 188.128906 79.234375 C 190.027344 79.042969 191.925781 78.863281 193.835938 78.734375 C 194.535156 78.683594 195.414062 78.53125 195.886719 78.875 C 196.382812 79.246094 196.507812 80.136719 196.777344 80.8125 C 197.933594 83.667969 198.417969 86.636719 198.304688 89.761719 C 198.101562 89.8125 197.847656 89.847656 197.605469 89.914062 C 197.019531 90.054688 196.546875 90.28125 196.574219 91.007812 C 196.597656 91.671875 196.597656 92.335938 196.574219 92.984375 C 196.558594 93.148438 196.433594 93.40625 196.304688 93.457031 C 194.789062 94.066406 193.261719 94.640625 191.734375 95.226562 C 191.683594 95.175781 191.644531 95.113281 191.59375 95.0625 C 191.835938 94.871094 192.117188 94.691406 192.320312 94.460938 C 193.082031 93.609375 193.667969 92.664062 193.871094 91.492188 C 194.140625 89.964844 193.886719 88.5 193.578125 87.03125 C 193.132812 84.839844 192.269531 82.878906 190.5625 81.363281 C 190.410156 81.234375 190.21875 81.15625 190.050781 81.054688 C 190.460938 81.820312 190.957031 82.46875 191.390625 83.144531 C 192.433594 84.777344 192.675781 86.652344 192.957031 88.511719 C 193.148438 89.773438 193.222656 91.046875 192.714844 92.257812 C 192.101562 93.683594 190.917969 94.601562 189.707031 95.46875 C 187.914062 96.78125 185.8125 97.304688 183.648438 97.535156 C 182.652344 97.636719 181.621094 97.484375 180.910156 96.679688 C 179.648438 95.292969 178.476562 93.824219 177.226562 92.421875 C 176.679688 91.8125 176.109375 91.214844 175.457031 90.730469 C 174.679688 90.15625 173.800781 90.332031 173.34375 91.023438 C 174.363281 90.4375 174.949219 90.550781 175.699219 91.492188 C 175.789062 91.609375 175.878906 91.722656 175.96875 91.851562 C 177 93.355469 178.003906 94.871094 179.074219 96.347656 C 179.761719 97.304688 180.617188 98.082031 181.800781 98.402344 C 183.8125 98.9375 185.683594 98.234375 187.554688 97.648438 C 188.484375 97.355469 189.351562 96.871094 190.257812 96.503906 C 194.371094 94.808594 198.597656 93.367188 202.40625 90.957031 C 205.679688 88.878906 209.128906 87.058594 212.492188 85.121094 C 212.925781 84.878906 213.355469 84.636719 213.789062 84.40625 C 213.75 84.355469 213.726562 84.292969 213.6875 84.242188 C 209.359375 86.460938 205.027344 88.675781 200.699219 90.90625 C 200.292969 89.605469 200.085938 89.492188 198.496094 89.734375 C 198.496094 88.078125 198.648438 86.410156 198.457031 84.777344 C 198.265625 83.171875 197.742188 81.617188 197.386719 80.152344 C 199.414062 80.152344 201.511719 80.085938 203.601562 80.164062 C 206.875 80.277344 210.148438 80.457031 213.40625 80.6875 C 215.304688 80.8125 217.203125 81.066406 219.085938 81.347656 C 219.777344 81.449219 220.4375 81.78125 221.101562 82.011719 C 221.074219 82.101562 221.050781 82.191406 221.023438 82.277344 C 219.902344 82.214844 218.769531 82.164062 217.648438 82.101562 C 217.648438 81.921875 217.648438 81.792969 217.648438 81.65625 C 217.519531 82.191406 217.113281 82.140625 216.730469 82.125 C 212.441406 81.949219 208.148438 81.792969 203.855469 81.589844 C 202.558594 81.527344 201.257812 81.347656 199.972656 81.207031 C 199.71875 81.183594 199.464844 81.132812 199.082031 81.082031 C 199.945312 83.746094 200.253906 86.34375 200.265625 88.984375 C 200.609375 86.460938 200.367188 83.960938 199.757812 81.488281 C 201.347656 81.414062 201.527344 81.515625 202.035156 82.546875 C 202.839844 84.191406 202.851562 85.9375 202.789062 87.695312 C 202.761719 88.585938 202.378906 89.277344 201.449219 89.53125 C 201.335938 89.554688 201.234375 89.605469 200.964844 89.683594 C 201.960938 89.710938 210.554688 84.636719 210.949219 83.71875 C 209.332031 84.699219 207.703125 85.667969 206.046875 86.675781 C 206.023438 84.992188 205.488281 83.527344 204.59375 82.214844 C 206.441406 82.445312 208.25 82.675781 210.058594 82.890625 C 210.734375 82.96875 211.433594 82.96875 212.097656 83.109375 C 213.5625 83.4375 214.605469 84.472656 215.636719 85.464844 C 215.941406 85.757812 216.414062 86.203125 216.351562 86.484375 C 216.234375 87.007812 216.527344 87.171875 216.757812 87.453125 C 216.871094 87.605469 216.988281 87.773438 217.0625 87.9375 C 217.46875 88.90625 217.609375 89.886719 217.46875 90.957031 C 216.949219 94.808594 215 97.839844 212.019531 100.199219 C 210.59375 101.332031 208.898438 102.085938 206.988281 102.109375 C 206.835938 102.109375 206.695312 102.289062 206.542969 102.378906 C 206.660156 102.503906 206.761719 102.671875 206.914062 102.746094 C 207.105469 102.835938 207.332031 102.875 207.539062 102.863281 C 208.238281 102.824219 208.925781 102.757812 209.601562 102.695312 C 209.449219 104.097656 209.28125 105.511719 209.128906 106.925781 C 208.824219 109.757812 208.898438 112.585938 209.449219 115.363281 C 209.980469 118.015625 210.722656 120.628906 211.472656 123.226562 C 211.839844 124.515625 212.441406 125.726562 212.886719 127 C 213.292969 128.171875 213.5625 129.382812 214.375 130.378906 C 214.605469 130.65625 214.617188 130.9375 214.476562 131.308594 C 213.203125 134.582031 211.652344 137.679688 209.066406 140.152344 C 206.300781 142.804688 203.5625 145.464844 200.761719 148.066406 C 199.09375 149.621094 197.324219 151.085938 195.59375 152.566406 C 194.039062 153.902344 192.484375 155.214844 190.894531 156.554688 C 190.789062 156.160156 190.714844 155.816406 190.625 155.472656 C 189.480469 151.023438 187.925781 146.703125 185.835938 142.636719 C 183.886719 138.839844 182.882812 134.886719 182.933594 130.644531 C 182.957031 128.097656 183.023438 125.546875 183.0625 122.996094 C 183.0625 122.539062 182.984375 122.082031 182.945312 121.722656 C 184.359375 121.265625 185.722656 120.894531 187.019531 120.371094 C 188.753906 119.671875 190.445312 118.855469 192.140625 118.054688 C 192.382812 117.9375 192.535156 117.644531 192.738281 117.441406 C 192.6875 117.390625 192.648438 117.351562 192.597656 117.300781 C 192.433594 117.378906 192.269531 117.453125 192.089844 117.53125 C 190.511719 118.21875 188.945312 118.972656 187.339844 119.582031 C 184.5625 120.640625 181.710938 121.429688 178.71875 120.894531 C 176.578125 120.511719 174.871094 119.46875 174.261719 117.171875 C 174.042969 116.371094 173.816406 115.566406 173.546875 114.777344 C 172.578125 112.011719 171.535156 109.285156 170.605469 106.507812 C 170.109375 105.027344 169.777344 103.5 169.371094 101.980469 C 169.359375 102.53125 169.394531 103.089844 169.484375 103.625 C 169.804688 105.449219 169.996094 107.320312 170.515625 109.09375 C 171.382812 112.089844 172.453125 115.019531 173.445312 117.964844 C 173.941406 119.429688 174.910156 120.449219 176.324219 121.074219 C 177.929688 121.773438 179.570312 122.167969 181.328125 121.824219 C 181.558594 121.773438 181.8125 121.824219 182.042969 121.824219 C 180.742188 122.753906 179.851562 123.929688 179.253906 125.292969 C 178.539062 126.921875 177.484375 128.285156 176.234375 129.523438 C 174.921875 130.835938 173.613281 132.160156 172.285156 133.460938 C 172.019531 133.730469 171.703125 133.972656 171.355469 134.125 C 168.339844 135.460938 165.144531 136.125 161.945312 136.875 C 158.277344 137.742188 154.597656 138.535156 151.046875 139.859375 C 146.472656 141.566406 142.359375 143.960938 139.40625 147.964844 C 137.648438 150.347656 135.800781 152.679688 134.757812 155.558594 C 134.605469 155.28125 134.453125 155.023438 134.300781 154.769531 C 131.523438 150.167969 128.757812 145.570312 125.945312 140.992188 C 125.179688 139.746094 124.175781 138.660156 122.644531 138.367188 C 121.664062 138.175781 120.632812 138.085938 119.628906 138.125 C 117.808594 138.203125 115.984375 138.433594 114.152344 138.546875 C 112.320312 138.660156 110.484375 138.671875 108.664062 138.839844 C 105.363281 139.132812 102.066406 139.4375 98.78125 139.882812 C 97.175781 140.101562 95.609375 140.585938 94.042969 141.03125 C 92.847656 141.363281 92.210938 142.242188 92.019531 143.453125 C 92.007812 143.554688 91.941406 143.644531 91.890625 143.746094 C 91.890625 144.359375 91.890625 144.957031 91.890625 145.570312 C 92.007812 146.128906 92.109375 146.703125 92.222656 147.261719 C 92.960938 150.601562 94.464844 153.609375 96.261719 156.476562 C 97.964844 159.21875 99.761719 161.894531 101.519531 164.597656 C 99.125 165.820312 98.882812 168.253906 100.195312 169.769531 C 99.75 170.164062 99.710938 170.648438 99.941406 171.171875 C 100.144531 171.644531 100.359375 172.101562 100.589844 172.5625 C 100.933594 173.210938 100.972656 173.863281 100.652344 174.535156 C 100.527344 174.804688 100.410156 175.085938 100.285156 175.367188 C 99.558594 177.023438 99.582031 178.5625 100.984375 179.890625 C 101.136719 180.042969 101.265625 180.222656 101.417969 180.375 C 101.710938 180.679688 101.8125 181 101.570312 181.40625 C 101.1875 182.070312 101.289062 182.757812 101.761719 183.316406 C 102.234375 183.867188 102.753906 184.386719 103.351562 184.796875 C 104.128906 185.320312 104.550781 185.96875 104.589844 186.910156 C 104.664062 188.46875 105.46875 189.574219 106.90625 190.097656 C 107.808594 190.429688 108.816406 190.542969 109.785156 190.621094 C 110.839844 190.710938 111.757812 191.105469 112.484375 191.820312 C 112.816406 192.136719 112.828125 192.773438 113.03125 193.257812 C 113.476562 194.316406 112.980469 195.222656 112.546875 196.113281 C 111.492188 198.292969 110.355469 200.433594 109.3125 202.613281 C 107.492188 206.460938 105.402344 210.234375 104.917969 214.566406 C 104.675781 216.773438 104.742188 218.964844 106.054688 220.902344 C 107.046875 222.355469 108.050781 223.808594 109.136719 225.195312 C 110.421875 226.839844 111.683594 228.535156 113.171875 229.988281 C 115.425781 232.207031 118.074219 233.914062 120.925781 235.265625 C 121.90625 235.738281 122.953125 236.082031 123.921875 236.589844 C 125.179688 237.253906 125.832031 237.136719 126.59375 235.914062 C 127.140625 235.035156 127.652344 234.144531 128.25 233.300781 C 129.394531 231.671875 131.203125 230.96875 133.128906 231.492188 C 134.78125 231.9375 136.386719 232.539062 138.03125 233.023438 C 140.03125 233.609375 141.1875 233.265625 142.335938 231.542969 C 143.59375 229.671875 144.714844 227.695312 145.886719 225.769531 C 145.964844 225.644531 146.039062 225.503906 146.128906 225.363281 C 146.179688 226.585938 146.15625 227.769531 146.003906 228.945312 C 145.785156 230.574219 144.882812 231.914062 144.003906 233.238281 C 139.582031 239.929688 137.457031 247.488281 135.738281 255.199219 C 135.660156 255.566406 135.597656 256.027344 136.105469 256.179688 C 136.628906 256.34375 136.859375 255.976562 137 255.566406 C 137.355469 254.585938 137.699219 253.589844 138.042969 252.597656 C 140.324219 245.855469 142.753906 239.191406 146.714844 233.214844 C 148.269531 230.855469 148.675781 228.203125 148.460938 225.464844 C 148.21875 222.417969 147.925781 219.371094 147.480469 216.339844 C 147.121094 213.917969 146.574219 211.535156 145.570312 209.277344 C 145.402344 208.910156 145.238281 208.527344 144.996094 208.207031 C 144.894531 208.066406 144.574219 208.042969 144.371094 208.082031 C 144.296875 208.09375 144.207031 208.398438 144.21875 208.566406 C 144.230469 208.84375 144.320312 209.113281 144.371094 209.378906 C 144.652344 210.859375 144.972656 212.324219 145.1875 213.804688 C 145.480469 215.804688 145.722656 217.816406 145.925781 219.832031 C 146.066406 221.21875 146.089844 222.621094 146.167969 224.023438 C 146.105469 223.972656 146.027344 223.921875 145.964844 223.882812 C 145.671875 224.074219 145.300781 224.214844 145.109375 224.484375 C 143.75 226.445312 142.421875 228.433594 141.074219 230.410156 C 140.144531 231.773438 139.824219 231.886719 138.222656 231.441406 C 136.617188 230.996094 135.039062 230.394531 133.40625 230.078125 C 131.078125 229.617188 128.988281 230.207031 127.433594 232.117188 C 126.761719 232.945312 126.1875 233.875 125.550781 234.742188 C 125.421875 234.921875 125.207031 235.175781 125.054688 235.164062 C 124.265625 235.085938 123.472656 234.933594 122.699219 234.78125 C 122.480469 234.742188 122.277344 234.589844 122.046875 234.460938 C 122.046875 234.589844 122.046875 234.679688 122.046875 234.820312 C 116.941406 232.015625 112.574219 228.421875 109.339844 223.476562 C 109.492188 223.578125 109.59375 223.640625 109.683594 223.71875 C 111.019531 224.75 112.457031 225.617188 114.0625 226.128906 C 114.726562 226.332031 115.453125 226.484375 116.125 226.433594 C 116.710938 226.394531 117.082031 225.871094 117.488281 225.375 C 119.425781 222.992188 121.296875 220.597656 122.761719 217.882812 C 125.207031 213.355469 126.785156 208.515625 128.046875 203.570312 C 128.515625 201.746094 128.988281 199.910156 128.707031 197.988281 C 128.65625 197.679688 128.621094 197.375 128.566406 197.019531 C 132.757812 196.699219 136.882812 196.367188 141.175781 196.039062 C 140.960938 196.355469 140.871094 196.496094 140.78125 196.625 C 140.042969 197.71875 140.054688 198.40625 141.367188 199.375 C 141.734375 199.65625 142.167969 199.886719 142.613281 200 C 143.785156 200.304688 144.972656 200.601562 146.167969 200.765625 C 147.25 200.917969 148.191406 201.199219 148.703125 202.269531 C 148.867188 202.613281 149.109375 202.917969 149.339844 203.238281 C 150.050781 204.257812 150.714844 205.339844 151.835938 205.964844 C 152.546875 206.359375 153.019531 206.894531 153.503906 207.546875 C 154.953125 209.535156 156.496094 211.472656 158.035156 213.394531 C 158.417969 213.867188 158.878906 214.503906 159.386719 214.59375 C 162.570312 215.167969 165.511719 216.542969 168.695312 217.105469 C 170.515625 217.421875 172.285156 217.792969 174.132812 217.242188 C 175.75 216.761719 177.40625 216.886719 179.035156 217.207031 C 181.941406 217.78125 184.601562 219.015625 187.226562 220.328125 C 191.339844 222.40625 195.414062 224.535156 199.515625 226.625 C 199.742188 226.738281 200 226.800781 200.238281 226.878906 C 200.292969 226.800781 200.34375 226.726562 200.378906 226.648438 C 200.214844 226.484375 200.074219 226.28125 199.882812 226.164062 C 197.398438 224.726562 194.917969 223.285156 192.410156 221.871094 C 188.191406 219.488281 183.925781 217.191406 179.113281 216.261719 C 177.609375 215.96875 176.09375 215.894531 174.566406 216.1875 C 173.597656 216.363281 172.605469 216.707031 171.664062 216.59375 C 169.460938 216.339844 167.28125 215.90625 165.117188 215.433594 C 163.398438 215.050781 161.71875 214.476562 160.011719 214.03125 C 159.539062 213.90625 159.15625 213.777344 158.839844 213.355469 C 157.71875 211.917969 156.558594 210.503906 155.402344 209.085938 C 154.828125 208.375 154.242188 207.660156 153.605469 206.871094 C 156.636719 207.738281 159.550781 208.566406 162.507812 209.417969 C 162.367188 208.832031 161.832031 208.730469 161.4375 208.589844 C 159.617188 207.941406 157.78125 207.304688 155.921875 206.742188 C 153.59375 206.054688 151.339844 205.300781 149.988281 203.046875 C 149.632812 202.449219 149.136719 201.914062 148.714844 201.351562 C 148.753906 201.289062 148.792969 201.238281 148.828125 201.171875 C 153.132812 202.117188 157.449219 203.058594 161.753906 204.015625 C 161.78125 203.925781 161.792969 203.835938 161.820312 203.746094 C 156.28125 201.964844 150.574219 200.867188 144.816406 199.949219 C 145.632812 198.179688 145.542969 197.210938 144.625 197.222656 C 145.109375 198.140625 144.664062 198.941406 144.320312 199.910156 C 143.542969 199.632812 142.792969 199.414062 142.105469 199.070312 C 141.609375 198.816406 141.125 198.394531 141.1875 197.71875 C 141.238281 197.132812 142.042969 196.265625 142.640625 196.253906 C 143.644531 196.226562 144.652344 196.277344 145.644531 196.382812 C 147.542969 196.574219 149.441406 196.777344 151.324219 197.042969 C 153.71875 197.386719 156.113281 197.644531 158.519531 197.527344 C 159.527344 197.476562 160.546875 197.3125 161.09375 196.304688 C 161.984375 196.574219 162.835938 196.839844 163.679688 197.09375 C 163.714844 197.019531 163.742188 196.941406 163.78125 196.851562 C 163.613281 196.738281 163.472656 196.574219 163.296875 196.535156 C 162.136719 196.253906 161.234375 195.386719 160.035156 195.132812 C 159.195312 194.953125 158.40625 194.507812 157.605469 194.175781 C 154.726562 192.964844 151.835938 191.78125 148.980469 190.519531 C 148.292969 190.210938 147.683594 189.691406 147.085938 189.207031 C 146.691406 188.875 146.433594 188.339844 146.703125 187.878906 C 146.945312 187.472656 147.390625 187.078125 147.835938 186.9375 C 148.320312 186.785156 148.917969 186.835938 149.441406 186.925781 C 152.320312 187.382812 155.109375 188.1875 157.792969 189.320312 C 164.683594 192.238281 171.613281 195.121094 178.449219 198.140625 C 183.710938 200.472656 188.878906 203.007812 194.089844 205.457031 C 194.253906 205.53125 194.523438 205.683594 194.507812 205.773438 C 194.40625 206.539062 195.058594 206.410156 195.414062 206.476562 C 196.636719 206.679688 196.648438 206.640625 196.890625 207.773438 C 197.566406 210.859375 198.164062 213.957031 198.914062 217.015625 C 200.0625 221.640625 201.207031 226.265625 202.570312 230.828125 C 203.335938 233.390625 204.480469 235.851562 205.511719 238.324219 C 206.136719 239.839844 207.320312 240.769531 208.925781 241.113281 C 209.96875 241.34375 211.039062 241.484375 212.082031 241.675781 C 212.425781 241.738281 212.976562 241.75 213.078125 241.957031 C 213.332031 242.492188 213.726562 242.492188 214.148438 242.441406 C 216.234375 242.199219 218.335938 242.007812 220.414062 241.675781 C 226.054688 240.785156 231.566406 239.34375 237.019531 237.636719 C 238.738281 237.101562 240.429688 236.515625 242.164062 235.953125 C 242.253906 236.78125 242.238281 237.585938 242.429688 238.347656 C 243.054688 240.921875 243.71875 243.484375 244.457031 246.019531 C 244.773438 247.105469 245.296875 248.136719 245.765625 249.183594 C 245.945312 249.578125 246.289062 249.933594 246.722656 249.703125 C 246.988281 249.550781 247.21875 249.117188 247.246094 248.785156 C 247.398438 246.785156 247.179688 244.8125 246.53125 242.910156 C 245.679688 240.386719 244.722656 237.890625 243.792969 235.355469 C 244.023438 235.265625 244.277344 235.164062 244.53125 235.046875 C 246.289062 234.246094 248.074219 233.507812 249.792969 232.625 C 252.046875 231.46875 253.5625 229.671875 254.300781 227.171875 C 255.597656 222.789062 256.042969 218.277344 256.464844 213.753906 C 256.667969 211.535156 256.78125 209.316406 256.886719 207.097656 C 257.074219 202.996094 257.316406 198.890625 257.367188 194.789062 C 257.535156 186.339844 257.496094 177.941406 256.644531 169.578125 Z M 198.828125 90.359375 C 199.246094 90.296875 199.742188 89.988281 199.972656 90.625 C 200.203125 91.265625 200 91.785156 199.398438 92.066406 C 198.710938 92.398438 198.011719 92.703125 197.160156 93.085938 C 197.160156 92.320312 197.109375 91.699219 197.183594 91.085938 C 197.210938 90.882812 197.527344 90.640625 197.757812 90.550781 C 198.089844 90.421875 198.457031 90.410156 198.828125 90.359375 Z M 165.917969 66.375 C 165.96875 63.964844 166.429688 61.554688 167.21875 59.25 C 168.148438 56.496094 169.980469 54.332031 172.097656 52.429688 C 175.535156 49.347656 179.6875 47.5625 184.078125 46.261719 C 187.136719 45.359375 190.257812 44.898438 193.425781 44.988281 C 195.566406 45.050781 197.691406 45.382812 199.820312 45.613281 C 199.984375 45.625 200.136719 45.714844 200.304688 45.777344 C 200.304688 45.828125 200.304688 45.878906 200.316406 45.929688 C 199.5 46.046875 198.699219 46.1875 197.871094 46.261719 C 192.230469 46.796875 187.109375 48.683594 182.691406 52.277344 C 180.742188 53.859375 179.699219 56.0625 179.136719 58.484375 C 178.488281 61.289062 178.195312 64.128906 178.246094 67 C 178.285156 69.585938 178.488281 72.171875 178.617188 74.757812 C 178.628906 75.054688 178.707031 75.347656 178.757812 75.589844 C 174.542969 76.097656 170.363281 76.609375 166.085938 77.128906 C 166.007812 73.625 165.84375 69.992188 165.917969 66.375 Z M 164.53125 63.148438 C 164.761719 62.574219 165.027344 62.027344 165.371094 61.492188 C 165.28125 62.117188 165.15625 62.742188 165.105469 63.367188 C 164.953125 65.367188 164.710938 67.355469 164.734375 69.355469 C 164.773438 71.917969 165.039062 74.464844 165.195312 77.027344 C 165.207031 77.179688 165.066406 77.449219 164.9375 77.488281 C 164.609375 77.613281 164.238281 77.640625 163.855469 77.714844 C 163.753906 76.59375 163.664062 75.523438 163.578125 74.453125 C 163.421875 72.542969 163.285156 70.628906 163.15625 68.71875 C 163.042969 66.71875 163.832031 64.933594 164.53125 63.148438 Z M 215.828125 80.035156 C 211.601562 79.324219 207.332031 79.269531 203.066406 79.398438 C 201.550781 79.4375 200.035156 79.679688 198.507812 79.753906 C 197.222656 79.820312 197.132812 79.945312 196.777344 78.734375 C 197.121094 78.734375 197.453125 78.734375 197.78125 78.734375 C 197.78125 78.699219 197.796875 78.671875 197.796875 78.632812 C 197.273438 78.507812 196.75 78.367188 196.214844 78.238281 C 195.730469 78.265625 195.222656 78.316406 194.699219 78.328125 C 192.664062 78.378906 190.613281 78.378906 188.574219 78.46875 C 187.058594 78.542969 185.53125 78.683594 184.027344 78.875 C 182.183594 79.105469 180.335938 79.324219 178.5 79.679688 C 175.675781 80.214844 172.847656 80.761719 170.058594 81.488281 C 166.632812 82.394531 163.234375 83.488281 160.1875 85.363281 C 159.335938 85.886719 158.671875 86.726562 157.898438 87.402344 C 157.742188 87.542969 157.5 87.695312 157.3125 87.671875 C 155.070312 87.441406 152.878906 86.996094 150.828125 86 C 149.136719 85.183594 149.007812 84.203125 150.636719 83.324219 C 152.472656 82.328125 154.421875 81.515625 156.394531 80.824219 C 159.910156 79.617188 163.527344 78.734375 167.207031 78.199219 C 169.535156 77.855469 171.855469 77.398438 174.199219 77.207031 C 176.949219 76.976562 179.710938 76.902344 182.460938 76.902344 C 185.238281 76.902344 188.027344 77.128906 190.804688 77.167969 C 194.523438 77.21875 198.226562 77.207031 201.945312 77.167969 C 205.421875 77.128906 208.898438 76.902344 212.375 76.953125 C 215.6875 77.003906 219.023438 77.128906 222.246094 78.097656 C 222.855469 78.277344 223.429688 78.570312 224.003906 78.851562 C 224.234375 78.964844 224.398438 79.183594 224.691406 79.285156 C 224.449219 79.015625 224.257812 78.699219 223.976562 78.507812 C 222.617188 77.589844 221.035156 77.179688 219.46875 76.8125 C 216.960938 76.210938 214.402344 75.90625 211.828125 75.894531 C 208.328125 75.882812 204.835938 75.867188 201.335938 75.90625 C 199.03125 75.933594 196.710938 76.136719 194.40625 76.109375 C 191.238281 76.074219 188.066406 75.882812 184.894531 75.792969 C 183.429688 75.753906 181.953125 75.765625 180.488281 75.765625 C 180.257812 75.765625 180.03125 75.765625 179.789062 75.765625 C 179.722656 75.015625 179.648438 74.339844 179.609375 73.652344 C 179.507812 71.253906 179.355469 68.859375 179.355469 66.464844 C 179.34375 63.722656 179.710938 61.019531 180.398438 58.371094 C 181.238281 55.121094 183.390625 52.941406 186.167969 51.246094 C 189.542969 49.167969 193.222656 47.894531 197.070312 47.089844 C 198.507812 46.785156 199.960938 46.570312 201.410156 46.363281 C 201.703125 46.328125 202.023438 46.519531 202.328125 46.582031 C 202.429688 46.605469 202.546875 46.542969 202.648438 46.519531 C 202.609375 46.414062 202.582031 46.300781 202.558594 46.238281 C 206.660156 46.582031 210.261719 48.300781 213.535156 50.75 C 218.003906 54.101562 220.820312 58.585938 222.132812 64.003906 C 222.792969 66.707031 223.277344 69.445312 223.824219 72.171875 C 224.308594 74.605469 224.882812 77.003906 226.128906 79.183594 C 226.015625 79.285156 225.914062 79.375 225.773438 79.488281 C 227.277344 80.457031 227.796875 81.949219 228.105469 83.566406 C 228.664062 86.484375 227.953125 89.109375 226.335938 91.53125 C 225.863281 90.625 225.367188 89.722656 224.933594 88.792969 C 224.832031 88.574219 224.804688 88.191406 224.921875 88.015625 C 225.570312 87.058594 226.027344 86.011719 226.09375 84.867188 C 226.167969 83.515625 225.75 82.304688 224.90625 81.234375 C 224.628906 80.878906 224.410156 80.429688 223.839844 80.496094 C 224.207031 81.183594 224.550781 81.859375 224.921875 82.546875 C 223.800781 82.085938 222.792969 81.539062 221.710938 81.273438 C 219.8125 80.738281 217.8125 80.367188 215.828125 80.035156 Z M 204.148438 87.351562 C 204.113281 87.964844 203.792969 88.371094 203.117188 88.535156 C 203.460938 86.128906 203.132812 83.871094 201.960938 81.742188 C 202.519531 81.628906 202.851562 81.820312 203.105469 82.277344 C 203.984375 83.871094 204.265625 85.566406 204.148438 87.351562 Z M 204.734375 82.710938 C 205.308594 83.847656 205.730469 85.007812 205.714844 86.304688 C 205.714844 86.804688 205.628906 87.171875 205.128906 87.375 C 204.863281 87.492188 204.621094 87.671875 204.265625 87.886719 C 204.59375 85.769531 204.355469 83.832031 203.398438 82.011719 C 204.074219 81.859375 204.441406 82.125 204.734375 82.710938 Z M 195.757812 153.6875 C 198.382812 151.445312 201.015625 149.226562 203.589844 146.933594 C 205.386719 145.339844 207.039062 143.605469 208.824219 142 C 212.25 138.902344 214.476562 135.066406 215.929688 130.746094 C 216.261719 129.753906 216.617188 128.769531 216.910156 127.777344 C 216.972656 127.558594 216.820312 127.28125 216.757812 127.039062 C 216.566406 127.203125 216.3125 127.332031 216.210938 127.546875 C 215.800781 128.363281 215.433594 129.191406 215.039062 130.046875 C 213.40625 127.265625 212.707031 124.257812 211.855469 121.097656 C 212.273438 121.417969 212.566406 121.648438 212.847656 121.851562 C 213.140625 122.066406 213.433594 122.285156 213.738281 122.488281 C 215.433594 123.671875 217.074219 124.910156 218.820312 126.003906 C 219.738281 126.59375 219.800781 127.445312 219.941406 128.3125 C 220.273438 130.339844 220.601562 132.363281 220.832031 134.417969 C 220.972656 135.769531 220.984375 137.132812 220.945312 138.496094 C 220.871094 141.375 220.679688 144.257812 219.8125 147.019531 C 219.328125 148.589844 218.691406 150.117188 217.992188 151.597656 C 217.761719 152.066406 217.152344 152.515625 216.644531 152.65625 C 214.808594 153.140625 212.960938 153.636719 211.089844 153.851562 C 208.351562 154.171875 205.589844 154.183594 202.851562 154.425781 C 199.5 154.71875 196.203125 155.265625 193.007812 156.335938 C 192.957031 156.351562 192.878906 156.335938 192.625 156.335938 C 193.757812 155.382812 194.765625 154.539062 195.757812 153.6875 Z M 176.171875 131.207031 C 177.941406 129.460938 179.519531 127.625 180.527344 125.332031 C 180.894531 124.5 181.445312 123.761719 181.914062 122.984375 C 181.953125 123.011719 181.976562 123.035156 182.015625 123.0625 C 182.015625 124.796875 182.015625 126.539062 182.015625 128.273438 C 182.015625 129.738281 181.914062 131.207031 182.003906 132.660156 C 182.105469 134.1875 182.335938 135.730469 182.589844 137.246094 C 182.945312 139.347656 184.003906 141.183594 184.871094 143.097656 C 185.785156 145.136719 186.714844 147.1875 187.621094 149.1875 C 185.277344 147.746094 182.957031 146.347656 180.5 144.84375 C 181.445312 144.703125 182.234375 144.585938 183.011719 144.472656 C 183.023438 144.382812 183.035156 144.292969 183.046875 144.203125 C 182.820312 144.101562 182.601562 143.949219 182.359375 143.898438 C 180.691406 143.582031 179.1875 143.910156 177.6875 144.753906 C 175.800781 145.796875 174.25 147.238281 172.527344 148.488281 C 170.300781 150.09375 167.792969 151.023438 165.09375 151.417969 C 164.175781 151.558594 163.257812 151.636719 162.339844 151.671875 C 161.71875 151.699219 161.539062 151.40625 161.882812 150.871094 C 162.328125 150.167969 162.824219 149.46875 163.386719 148.855469 C 165.027344 147.046875 166.226562 144.929688 167.460938 142.839844 C 168.65625 140.828125 169.753906 138.777344 171.011719 136.800781 C 172.375 134.632812 174.363281 132.988281 176.171875 131.207031 Z M 154.445312 194.621094 C 155.171875 194.636719 155.933594 194.609375 156.636719 194.789062 C 157.933594 195.121094 159.195312 195.578125 160.597656 196.023438 C 159.832031 196.738281 158.992188 196.6875 158.214844 196.6875 C 157.019531 196.6875 155.808594 196.625 154.636719 196.40625 C 154.304688 196.34375 154.011719 195.691406 153.847656 195.257812 C 153.695312 194.839844 154.078125 194.609375 154.445312 194.621094 Z M 146.664062 186.082031 C 145.109375 187.089844 145.175781 189.027344 146.765625 190.175781 C 148.585938 191.5 150.652344 192.339844 152.714844 193.195312 C 153.121094 193.359375 153.542969 193.527344 153.847656 193.652344 C 153.527344 194.023438 153.042969 194.328125 152.941406 194.75 C 152.839844 195.222656 153.082031 195.769531 153.183594 196.304688 C 151.554688 196.089844 149.847656 195.820312 148.140625 195.628906 C 146.460938 195.4375 144.765625 195.183594 143.074219 195.195312 C 140.550781 195.207031 138.03125 195.386719 135.523438 195.566406 C 133.140625 195.730469 130.769531 196.023438 128.390625 196.175781 C 126.722656 196.277344 125.027344 196.332031 123.386719 195.910156 C 121.117188 195.335938 119.550781 193.832031 118.570312 191.832031 C 117.539062 189.726562 116.8125 187.484375 115.960938 185.292969 C 115.910156 185.179688 115.882812 185.050781 115.859375 184.960938 C 116.992188 184.058594 118.136719 183.203125 119.207031 182.261719 C 119.859375 181.699219 120.457031 181.074219 120.992188 180.386719 C 121.855469 179.265625 121.691406 178.066406 121.066406 176.894531 C 120.890625 176.5625 120.890625 176.371094 121.09375 175.988281 C 121.4375 175.328125 121.589844 174.5625 121.792969 173.824219 C 121.832031 173.683594 121.769531 173.492188 121.832031 173.378906 C 122.316406 172.511719 121.578125 172.230469 121.132812 171.746094 C 120.699219 171.285156 120.457031 170.675781 120.046875 170.191406 C 119.09375 169.019531 117.949219 168.050781 116.445312 167.757812 C 115.796875 167.628906 115.019531 167.71875 114.394531 167.972656 C 112.292969 168.816406 110.253906 169.796875 108.167969 170.675781 C 107.109375 171.121094 106.015625 171.476562 104.917969 171.808594 C 104.539062 171.925781 104.105469 171.824219 103.660156 171.824219 C 103.644531 172.332031 104.003906 172.382812 104.371094 172.421875 C 105.453125 172.523438 106.449219 172.203125 107.414062 171.796875 C 109.480469 170.929688 111.566406 170.089844 113.578125 169.09375 C 115.488281 168.152344 117.082031 168.535156 118.558594 169.898438 C 119.015625 170.320312 119.488281 170.726562 120.011719 171.183594 C 118.394531 171.441406 117.132812 172.253906 115.832031 172.957031 C 112.636719 174.691406 109.441406 176.4375 106.242188 178.167969 C 106.015625 178.296875 105.773438 178.375 105.542969 178.5 C 105.390625 178.589844 105.261719 178.730469 105.125 178.855469 C 105.175781 178.945312 105.210938 179.035156 105.261719 179.125 C 106.207031 178.769531 107.1875 178.511719 108.066406 178.054688 C 111.007812 176.511719 113.898438 174.882812 116.828125 173.3125 C 117.742188 172.816406 118.699219 172.382812 119.667969 172 C 120.289062 171.757812 121.167969 172.523438 121.167969 173.097656 C 121.15625 175.632812 119.550781 177.097656 117.628906 178.246094 C 115.832031 179.316406 113.921875 180.207031 112.027344 181.085938 C 110.472656 181.800781 109.097656 182.757812 107.808594 183.867188 C 107.480469 184.144531 107.148438 184.441406 106.816406 184.71875 C 106.84375 184.769531 106.878906 184.835938 106.90625 184.886719 C 107.085938 184.835938 107.3125 184.820312 107.453125 184.707031 C 109.808594 182.832031 112.546875 181.675781 115.234375 180.398438 C 117.121094 179.507812 118.914062 178.460938 120.339844 176.871094 C 121.167969 178.539062 121.054688 179.417969 119.792969 180.679688 C 117.347656 183.101562 114.558594 185.027344 111.414062 186.441406 C 111.058594 186.59375 110.726562 186.796875 110.371094 186.976562 C 110.394531 187.050781 110.410156 187.128906 110.433594 187.203125 C 110.703125 187.167969 111.007812 187.191406 111.234375 187.089844 C 112.507812 186.515625 113.78125 185.90625 115.042969 185.304688 C 115.09375 185.28125 115.160156 185.269531 115.234375 185.242188 C 115.730469 187.511719 116.519531 189.675781 117.5 191.753906 C 118.277344 193.398438 119.5 194.710938 120.964844 195.769531 C 122.113281 196.597656 123.488281 196.789062 124.851562 196.929688 C 125.714844 197.019531 126.605469 196.96875 127.484375 196.953125 C 127.894531 196.953125 127.84375 197.210938 127.867188 197.476562 C 128.058594 199.3125 127.585938 201.058594 127.078125 202.792969 C 125.894531 206.894531 124.542969 210.933594 122.683594 214.785156 C 122.621094 214.925781 122.558594 215.050781 122.417969 215.332031 C 120.265625 211.675781 118.304688 208.015625 117.003906 204.078125 C 115.730469 200.230469 114.710938 196.292969 113.578125 192.339844 C 114.710938 192.355469 115.691406 192.648438 116.535156 191.832031 C 116.316406 191.804688 116.089844 191.730469 115.871094 191.769531 C 114.816406 191.945312 113.859375 191.679688 113.058594 191.003906 C 111.871094 190.007812 110.496094 189.714844 108.996094 189.652344 C 107.300781 189.589844 105.9375 188.925781 105.503906 187.371094 C 105.453125 187.167969 105.402344 186.949219 105.417969 186.746094 C 105.519531 185.636719 105.023438 184.871094 104.117188 184.261719 C 103.519531 183.851562 102.972656 183.367188 102.4375 182.882812 C 102.027344 182.515625 102.078125 182.042969 102.296875 181.585938 C 102.679688 180.769531 102.628906 180.386719 102.027344 179.722656 C 101.800781 179.46875 101.570312 179.203125 101.339844 178.945312 C 100.5 178.027344 100.628906 176.996094 101.035156 175.953125 C 101.1875 175.570312 101.367188 175.199219 101.558594 174.84375 C 102.078125 173.847656 101.925781 172.917969 101.339844 171.988281 C 100.960938 171.390625 100.449219 170.816406 100.640625 170.078125 C 101.316406 170.203125 101.953125 170.332031 102.601562 170.433594 C 102.753906 170.457031 102.945312 170.40625 103.097656 170.332031 C 103.238281 170.253906 103.339844 170.101562 103.46875 169.972656 C 103.289062 169.910156 103.125 169.769531 102.945312 169.785156 C 101.964844 169.847656 101.011719 169.183594 100.71875 168.203125 C 100.425781 167.222656 100.78125 166.316406 101.773438 165.859375 C 103.851562 164.890625 105.949219 163.984375 108.039062 163.042969 C 108.472656 162.851562 108.878906 162.621094 109.441406 162.339844 C 109.617188 162.558594 109.875 162.8125 110.050781 163.09375 C 110.304688 163.5 110.34375 163.894531 110.066406 164.339844 C 109.03125 166 107.707031 167.347656 105.976562 168.28125 C 105.847656 168.355469 105.695312 168.417969 105.59375 168.523438 C 105.480469 168.648438 105.402344 168.816406 105.3125 168.96875 C 105.480469 169.019531 105.644531 169.09375 105.8125 169.121094 C 105.914062 169.132812 106.015625 169.09375 106.117188 169.082031 C 106.449219 169.578125 106.359375 170.355469 107.261719 170.625 C 107.085938 170.113281 106.96875 169.707031 106.792969 169.324219 C 106.613281 168.929688 106.742188 168.75 107.109375 168.597656 C 108.6875 167.910156 109.835938 166.761719 110.703125 165.296875 C 111.273438 164.316406 111.273438 163.527344 110.648438 162.671875 C 110.140625 161.984375 109.148438 161.625 108.21875 161.945312 C 106.625 162.492188 105.058594 163.128906 103.480469 163.730469 C 103.238281 163.820312 103.007812 163.921875 102.78125 164.011719 C 101.25 161.640625 99.722656 159.292969 98.222656 156.9375 C 96.449219 154.160156 94.832031 151.304688 93.96875 148.09375 C 93.585938 146.664062 93.203125 145.222656 93.472656 143.71875 C 93.597656 143.019531 93.953125 142.5625 94.617188 142.394531 C 96.183594 142.027344 97.738281 141.617188 99.316406 141.375 C 101.734375 141.007812 104.167969 140.726562 106.613281 140.472656 C 108.472656 140.28125 110.355469 140.203125 112.214844 140.050781 C 113.949219 139.910156 115.679688 139.667969 117.425781 139.589844 C 118.992188 139.527344 120.570312 139.539062 122.125 139.65625 C 123.5 139.746094 124.351562 140.738281 125.027344 141.808594 C 127.117188 145.097656 129.179688 148.386719 131.203125 151.710938 C 137.328125 161.804688 142.589844 172.332031 147.289062 183.152344 C 147.429688 183.457031 147.363281 183.851562 147.390625 184.210938 C 147.964844 184.144531 147.898438 184.683594 148.089844 184.988281 C 148.191406 185.140625 148.257812 185.332031 148.308594 185.460938 C 147.773438 185.703125 147.148438 185.777344 146.664062 186.082031 Z M 174.222656 195.015625 C 171.230469 193.769531 168.226562 192.519531 165.21875 191.257812 C 165.230469 191.21875 165.246094 191.179688 165.257812 191.144531 C 165.957031 191.09375 166.644531 191.003906 167.347656 190.976562 C 168.378906 190.9375 169.257812 191.335938 170.070312 191.945312 C 171.445312 192.976562 172.847656 193.960938 174.234375 194.953125 C 174.234375 194.992188 174.234375 195.003906 174.222656 195.015625 Z M 255.484375 192.046875 C 255.433594 196.738281 255.332031 201.429688 255.078125 206.117188 C 254.871094 209.992188 254.503906 213.867188 254.070312 217.714844 C 253.703125 220.914062 253.117188 224.085938 252.65625 227.285156 C 252.429688 228.878906 251.359375 229.824219 250.121094 230.585938 C 247.589844 232.15625 244.824219 233.214844 242.023438 234.195312 C 235.222656 236.589844 228.257812 238.386719 221.1875 239.816406 C 219.316406 240.195312 217.457031 240.605469 215.585938 240.921875 C 215.089844 241.011719 214.527344 240.835938 214.019531 240.71875 C 212.644531 240.386719 211.292969 240.019531 209.917969 239.675781 C 208.746094 239.382812 207.984375 238.707031 207.488281 237.570312 C 205.640625 233.300781 204.046875 228.957031 202.851562 224.457031 C 201.460938 219.195312 200.085938 213.917969 198.699219 208.652344 C 198.546875 208.066406 198.433594 207.480469 198.277344 206.820312 C 200.214844 207.035156 201.996094 207.253906 203.792969 207.445312 C 205.269531 207.597656 206.746094 207.722656 208.226562 207.875 C 209.855469 208.03125 211.484375 208.195312 213.101562 208.347656 C 214.734375 208.5 216.363281 208.617188 217.992188 208.78125 C 219.964844 208.984375 221.929688 209.203125 223.890625 209.457031 C 224.984375 209.597656 225.824219 210.210938 226.523438 211.0625 C 228.191406 213.089844 230.105469 214.875 232.34375 216.261719 C 235.679688 218.328125 239.207031 220.023438 242.839844 221.5 C 243.09375 221.601562 243.449219 221.476562 243.769531 221.449219 C 243.640625 221.132812 243.589844 220.699219 243.359375 220.53125 C 242.496094 219.933594 241.566406 219.421875 240.660156 218.886719 C 237.910156 217.242188 235.09375 215.6875 232.421875 213.929688 C 231.109375 213.0625 230 211.851562 228.867188 210.730469 C 228.089844 209.96875 227.417969 209.085938 226.679688 208.234375 C 227.160156 207.964844 227.875 207.558594 228.664062 207.113281 C 228.765625 207.621094 228.894531 207.964844 229.378906 207.660156 C 229.429688 207.632812 229.570312 207.722656 229.65625 207.773438 C 232.5625 209.484375 235.492188 211.152344 238.355469 212.910156 C 239.488281 213.597656 240.496094 214.476562 241.566406 215.269531 C 241.691406 215.359375 241.84375 215.410156 241.984375 215.472656 C 242.035156 215.433594 242.101562 215.382812 242.152344 215.34375 C 242.035156 215.117188 241.972656 214.808594 241.78125 214.65625 C 240.457031 213.574219 239.144531 212.453125 237.730469 211.472656 C 235.210938 209.710938 232.625 208.054688 230.066406 206.347656 C 229.976562 206.285156 229.898438 206.234375 229.785156 206.144531 C 230.410156 205.457031 231.007812 204.78125 231.671875 204.039062 C 232.523438 204.84375 233.324219 205.621094 234.152344 206.371094 C 236.648438 208.652344 239.5 210.386719 242.429688 212.019531 C 242.519531 212.070312 242.632812 212.160156 242.722656 212.144531 C 242.941406 212.121094 243.144531 212.03125 243.359375 211.980469 C 243.246094 211.816406 243.167969 211.597656 243.015625 211.496094 C 241.414062 210.375 239.730469 209.367188 238.214844 208.144531 C 236.535156 206.78125 234.929688 205.277344 233.425781 203.710938 C 232.066406 202.308594 231.121094 202.207031 229.875 203.734375 C 229.378906 204.347656 229.109375 205.164062 228.5625 205.710938 C 228.027344 206.234375 227.238281 206.460938 226.613281 206.90625 C 226.230469 207.1875 225.953125 207.609375 225.671875 207.902344 C 223.417969 207.648438 221.152344 207.355469 218.859375 207.148438 C 216.769531 206.960938 214.679688 206.871094 212.59375 206.730469 C 210.351562 206.578125 208.125 206.398438 205.882812 206.246094 C 204.40625 206.144531 202.914062 206.054688 201.4375 205.953125 C 199.691406 205.824219 197.960938 205.699219 196.230469 205.558594 C 196.023438 205.542969 195.835938 205.40625 195.644531 205.300781 C 191.667969 203.289062 187.671875 201.300781 183.722656 199.234375 C 182.375 198.535156 181.125 197.65625 179.828125 196.867188 C 177.445312 195.425781 175.039062 194.011719 172.667969 192.546875 C 171.957031 192.113281 171.320312 191.550781 170.644531 191.042969 C 169.257812 189.984375 167.726562 189.78125 166.074219 190.1875 C 165.398438 190.351562 164.710938 190.519531 164.007812 190.621094 C 163.753906 190.660156 163.476562 190.53125 163.21875 190.441406 C 159.996094 189.191406 156.789062 187.894531 153.527344 186.722656 C 152.320312 186.289062 150.996094 186.148438 149.734375 185.828125 C 149.515625 185.777344 149.273438 185.597656 149.171875 185.40625 C 148.96875 185.039062 148.855469 184.617188 148.675781 184.144531 C 149.835938 183.96875 150.945312 183.714844 152.0625 183.648438 C 154.304688 183.507812 156.546875 183.34375 158.777344 183.40625 C 160.953125 183.472656 163.128906 183.789062 165.308594 184.007812 C 165.742188 184.042969 166.160156 184.132812 166.59375 184.109375 C 167.449219 184.058594 167.945312 183.484375 168.226562 182.746094 C 168.757812 181.328125 169.257812 179.902344 169.765625 178.476562 C 170.464844 176.488281 171.179688 174.5 171.828125 172.484375 C 172.210938 171.285156 171.636719 170.523438 170.375 170.5625 C 167.640625 170.648438 164.902344 170.789062 162.175781 170.929688 C 160.800781 170.992188 159.425781 171.082031 158.050781 171.210938 C 156.636719 171.339844 155.234375 171.515625 153.835938 171.695312 C 152.113281 171.910156 150.394531 172.128906 148.675781 172.371094 C 147.898438 172.484375 147.121094 172.625 146.347656 172.789062 C 146.207031 172.816406 146.105469 173.019531 145.988281 173.148438 C 146.117188 173.222656 146.246094 173.339844 146.398438 173.390625 C 147.148438 173.621094 147.796875 173.097656 148.550781 173.070312 C 150 173.019531 151.441406 172.765625 152.890625 172.613281 C 154.558594 172.433594 156.226562 172.269531 157.898438 172.117188 C 159.09375 172 160.304688 171.898438 161.5 171.835938 C 164.148438 171.683594 166.796875 171.566406 169.433594 171.441406 C 169.753906 171.425781 170.085938 171.441406 170.402344 171.441406 C 171.152344 171.453125 171.269531 171.566406 171.039062 172.28125 C 170.492188 173.898438 169.90625 175.503906 169.332031 177.113281 C 168.722656 178.792969 168.136719 180.488281 167.484375 182.160156 C 167.039062 183.292969 166.671875 183.382812 165.421875 183.191406 C 164.046875 182.972656 162.660156 182.832031 161.273438 182.757812 C 159.4375 182.65625 157.605469 182.65625 155.769531 182.617188 C 153.464844 182.566406 151.210938 182.988281 148.96875 183.472656 C 148.511719 183.574219 148.359375 183.421875 148.207031 183.0625 C 146.867188 180.03125 145.53125 176.996094 144.179688 173.964844 C 144.054688 173.683594 144.078125 173.492188 144.246094 173.1875 C 144.488281 172.738281 144.488281 172.167969 144.550781 171.632812 C 144.765625 169.644531 144.984375 167.65625 145.1875 165.667969 C 145.25 164.980469 145.300781 164.289062 145.328125 163.601562 C 145.429688 160.683594 145.53125 157.765625 145.59375 154.859375 C 145.609375 154.246094 145.46875 153.625 145.289062 153.011719 C 144.246094 159.292969 143.683594 165.617188 143.339844 171.808594 C 140.652344 166.636719 137.902344 161.359375 135.191406 156.109375 C 135.34375 155.941406 135.574219 155.726562 135.738281 155.472656 C 137.140625 153.382812 138.425781 151.226562 139.929688 149.214844 C 142.246094 146.105469 145.300781 143.910156 148.855469 142.382812 C 152.128906 140.957031 155.566406 140.074219 159.03125 139.273438 C 162.8125 138.394531 166.660156 137.679688 170.3125 136.011719 C 169.535156 137.386719 168.863281 138.710938 168.085938 139.972656 C 166.582031 142.421875 165.039062 144.84375 163.460938 147.238281 C 162.890625 148.117188 162.136719 148.882812 161.476562 149.710938 C 161.257812 149.976562 161.082031 150.269531 160.925781 150.578125 C 160.328125 151.789062 160.875 152.71875 162.238281 152.769531 C 162.722656 152.78125 163.21875 152.707031 163.714844 152.640625 C 167.117188 152.273438 170.261719 151.203125 173.0625 149.214844 C 174.335938 148.308594 175.558594 147.316406 176.847656 146.421875 C 177.433594 146.015625 178.132812 145.734375 178.792969 145.441406 C 178.960938 145.363281 179.292969 145.414062 179.417969 145.53125 C 180.375 146.511719 181.621094 146.984375 182.792969 147.609375 C 184.117188 148.308594 185.429688 149.046875 186.640625 149.925781 C 188.015625 150.910156 188.5 152.5 189.035156 154.019531 C 189.378906 154.972656 189.644531 155.96875 189.988281 156.925781 C 190.128906 157.320312 189.988281 157.523438 189.722656 157.777344 C 187.542969 159.816406 185.339844 161.816406 183.238281 163.921875 C 181.914062 165.246094 181.203125 166.980469 180.488281 168.6875 C 179.378906 171.339844 178.375 174.027344 177.902344 176.871094 C 177.570312 178.882812 177.382812 180.910156 177.164062 182.949219 C 177.0625 183.929688 177.039062 184.921875 177.023438 185.917969 C 177 187.664062 177.023438 189.410156 177.023438 191.15625 C 177.113281 191.167969 177.214844 191.195312 177.304688 191.207031 C 177.382812 191.042969 177.507812 190.875 177.519531 190.710938 C 177.625 189.703125 177.6875 188.695312 177.789062 187.703125 C 177.992188 185.777344 178.132812 183.851562 178.4375 181.941406 C 178.84375 179.394531 179.253906 176.816406 179.890625 174.320312 C 180.742188 170.96875 182.066406 167.796875 183.925781 164.851562 C 184.945312 163.257812 186.398438 162.125 187.671875 160.796875 C 188.15625 160.300781 188.742188 159.917969 189.210938 159.410156 C 190.636719 157.855469 192.585938 157.355469 194.484375 156.820312 C 197.082031 156.082031 199.730469 155.609375 202.445312 155.507812 C 204.507812 155.433594 206.582031 155.371094 208.644531 155.253906 C 211.496094 155.101562 214.324219 154.769531 216.730469 153.738281 C 217.011719 153.890625 217.253906 154.121094 217.382812 154.070312 C 217.636719 153.96875 217.890625 153.75 218.042969 153.519531 C 219.140625 151.839844 220.003906 150.054688 220.550781 148.128906 C 221.214844 145.796875 221.648438 143.414062 221.722656 140.980469 C 221.773438 139.476562 221.902344 137.960938 221.824219 136.457031 C 221.738281 134.632812 221.457031 132.824219 221.253906 131.015625 C 221.175781 130.3125 221.085938 129.613281 221 128.746094 C 221.6875 129.535156 222.285156 130.238281 222.882812 130.949219 C 225.007812 133.449219 227.125 135.945312 229.25 138.445312 C 229.988281 139.3125 230.753906 140.164062 231.542969 140.992188 C 231.707031 141.160156 231.988281 141.210938 232.21875 141.324219 C 232.179688 141.082031 232.152344 140.851562 232.117188 140.609375 C 232.101562 140.535156 232.066406 140.472656 231.988281 140.214844 C 233.886719 141.605469 235.679688 142.828125 237.375 144.167969 C 240.535156 146.652344 243.667969 149.164062 246.734375 151.75 C 248.953125 153.625 250.976562 155.675781 252.148438 158.441406 C 253.101562 160.695312 253.6875 163.054688 254.019531 165.460938 C 254.375 168.125 254.683594 170.816406 254.910156 173.492188 C 255.113281 175.925781 255.253906 178.359375 255.320312 180.808594 C 255.445312 184.476562 255.535156 188.261719 255.484375 192.046875 Z M 255.484375 192.046875 " fill-opacity="1" fill-rule="nonzero"/></g><path fill="#000000" d="M 204.835938 239.6875 C 204.699219 239.585938 204.46875 239.558594 204.277344 239.546875 C 202.0625 239.40625 199.84375 239.292969 197.617188 239.152344 C 195.03125 238.984375 192.460938 238.78125 189.875 238.605469 C 186.855469 238.398438 183.851562 238.171875 180.832031 237.992188 C 177.96875 237.828125 175.101562 237.710938 172.222656 237.570312 C 168.085938 237.367188 163.945312 237.152344 159.808594 236.933594 C 158.34375 236.859375 156.878906 236.808594 155.414062 236.71875 C 153.375 236.601562 151.324219 236.460938 149.289062 236.359375 C 149.121094 236.347656 148.894531 236.539062 148.816406 236.691406 C 148.765625 236.78125 148.945312 237.035156 149.070312 237.152344 C 149.1875 237.253906 149.378906 237.292969 149.542969 237.316406 C 152.957031 237.800781 156.382812 238.3125 159.808594 238.730469 C 161.945312 239 164.097656 239.113281 166.25 239.28125 C 169.460938 239.535156 172.65625 239.800781 175.867188 240.03125 C 178.832031 240.234375 181.8125 240.414062 184.78125 240.578125 C 189.160156 240.808594 193.542969 241.027344 197.910156 241.242188 C 197.910156 241.191406 197.910156 241.128906 197.910156 241.078125 C 199.464844 241.078125 201.015625 241.101562 202.570312 241.0625 C 203.320312 241.050781 204.074219 240.949219 204.8125 240.808594 C 205.003906 240.769531 205.246094 240.4375 205.269531 240.234375 C 205.285156 240.058594 205.027344 239.828125 204.835938 239.6875 Z M 204.835938 239.6875 " fill-opacity="1" fill-rule="nonzero"/><path fill="#000000" d="M 151.007812 229.671875 C 152.839844 229.898438 154.660156 230.128906 156.496094 230.332031 C 158.457031 230.5625 160.429688 230.765625 162.390625 230.957031 C 164.046875 231.121094 165.691406 231.238281 167.347656 231.378906 C 169.601562 231.582031 171.855469 231.8125 174.109375 231.988281 C 176.667969 232.195312 179.226562 232.371094 181.789062 232.539062 C 185.214844 232.742188 188.640625 232.917969 191.835938 233.097656 C 194.050781 232.984375 196.039062 232.894531 198.011719 232.78125 C 198.394531 232.753906 198.828125 232.703125 198.851562 232.167969 C 198.878906 231.632812 198.433594 231.53125 198.0625 231.503906 C 195.910156 231.351562 193.757812 231.238281 191.605469 231.097656 C 189.339844 230.957031 187.085938 230.816406 184.816406 230.675781 C 182.257812 230.511719 179.699219 230.34375 177.125 230.191406 C 175.230469 230.078125 173.332031 230 171.433594 229.898438 C 168.65625 229.746094 165.882812 229.554688 163.105469 229.414062 C 160.824219 229.300781 158.535156 229.238281 156.253906 229.132812 C 155.195312 229.082031 154.152344 228.996094 153.09375 228.890625 C 152.078125 228.789062 151.058594 228.613281 150.039062 228.546875 C 149.835938 228.535156 149.617188 228.839844 149.414062 229.007812 C 149.582031 229.1875 149.722656 229.441406 149.9375 229.503906 C 150.269531 229.632812 150.652344 229.617188 151.007812 229.671875 Z M 151.007812 229.671875 " fill-opacity="1" fill-rule="nonzero"/><path fill="#000000" d="M 183.941406 89.964844 C 184.257812 89.9375 184.679688 89.554688 184.832031 89.226562 C 185.007812 88.867188 184.945312 88.394531 184.996094 87.964844 C 184.957031 87.070312 184.945312 86.179688 184.335938 85.464844 C 184.144531 85.25 183.8125 84.96875 183.582031 85.007812 C 183.304688 85.042969 182.945312 85.335938 182.84375 85.605469 C 182.398438 86.855469 182.398438 88.140625 182.945312 89.363281 C 183.085938 89.671875 183.609375 89.988281 183.941406 89.964844 Z M 183.941406 89.964844 " fill-opacity="1" fill-rule="nonzero"/><path fill="#000000" d="M 175.96875 107.882812 C 177.34375 107.894531 179.671875 106.722656 180.488281 105.550781 C 180.617188 105.359375 180.628906 104.925781 180.5 104.761719 C 180.375 104.59375 179.992188 104.570312 179.722656 104.570312 C 179.585938 104.570312 179.417969 104.722656 179.292969 104.835938 C 178.296875 105.703125 177.191406 106.316406 175.839844 106.417969 C 175.523438 106.441406 175.191406 106.492188 174.910156 106.648438 C 174.707031 106.761719 174.464844 107.054688 174.476562 107.234375 C 174.503906 107.4375 174.769531 107.691406 175 107.769531 C 175.304688 107.882812 175.648438 107.84375 175.96875 107.882812 Z M 175.96875 107.882812 " fill-opacity="1" fill-rule="nonzero"/><path fill="#000000" d="M 168.519531 98.261719 C 168.480469 98.808594 168.605469 99.394531 169.117188 99.855469 C 169.34375 97.839844 169.777344 95.839844 169.726562 93.839844 C 169.6875 91.863281 169.15625 89.898438 168.835938 87.9375 C 168.757812 87.949219 168.671875 87.964844 168.59375 87.976562 C 168.707031 88.777344 168.773438 89.582031 168.9375 90.371094 C 169.28125 92.054688 169.191406 93.738281 168.949219 95.417969 C 168.796875 96.363281 168.582031 97.304688 168.519531 98.261719 Z M 168.519531 98.261719 " fill-opacity="1" fill-rule="nonzero"/><path fill="#000000" d="M 208.796875 96.335938 C 208.734375 96.503906 208.773438 96.691406 208.761719 96.871094 C 208.847656 96.910156 208.9375 96.949219 209.039062 96.984375 C 209.410156 96.363281 209.777344 95.738281 210.148438 95.113281 C 210.605469 94.324219 210.617188 93.519531 210.261719 92.664062 C 209.945312 91.886719 209.726562 91.097656 209.957031 90.230469 C 210.148438 89.503906 210.25 88.765625 210.429688 87.808594 C 210.148438 88.101562 209.917969 88.269531 209.804688 88.484375 C 209.089844 89.898438 208.886719 91.351562 209.535156 92.855469 C 209.816406 93.496094 209.804688 94.082031 209.484375 94.703125 C 209.207031 95.214844 209 95.777344 208.796875 96.335938 Z M 208.796875 96.335938 " fill-opacity="1" fill-rule="nonzero"/><path fill="#000000" d="M 171.011719 91.175781 C 171.535156 91.097656 171.6875 90.640625 171.714844 90.21875 C 171.726562 89.683594 171.675781 89.136719 171.5625 88.625 C 171.445312 88.128906 171.152344 87.65625 170.542969 87.746094 C 169.957031 87.835938 169.777344 88.308594 169.792969 88.867188 C 169.792969 88.957031 169.792969 89.046875 169.792969 89.121094 C 169.765625 89.136719 169.738281 89.136719 169.714844 89.148438 C 169.828125 89.605469 169.90625 90.066406 170.058594 90.5 C 170.199219 90.933594 170.492188 91.25 171.011719 91.175781 Z M 171.011719 91.175781 " fill-opacity="1" fill-rule="nonzero"/><path fill="#000000" d="M 166.761719 204.207031 C 166.914062 204.195312 167.140625 204.039062 167.167969 203.925781 C 167.320312 203.007812 167.460938 202.078125 167.523438 201.148438 C 167.535156 200.917969 167.308594 200.675781 167.128906 200.332031 C 166.925781 200.5625 166.785156 200.652344 166.773438 200.753906 C 166.644531 201.808594 166.519531 202.867188 166.429688 203.925781 C 166.429688 204.015625 166.660156 204.21875 166.761719 204.207031 Z M 166.761719 204.207031 " fill-opacity="1" fill-rule="nonzero"/><path fill="#000000" d="M 165.855469 207.632812 C 165.675781 208.144531 165.550781 208.667969 165.371094 209.292969 C 166.097656 209.203125 166.722656 207.914062 166.417969 207.519531 C 166.175781 207.1875 165.945312 207.378906 165.855469 207.632812 Z M 165.855469 207.632812 " fill-opacity="1" fill-rule="nonzero"/><path fill="#000000" d="M 163.84375 212.375 C 163.691406 212.605469 163.320312 212.921875 163.78125 213.242188 C 163.820312 213.269531 163.855469 213.28125 164.046875 213.382812 C 164.289062 212.9375 164.53125 212.492188 164.761719 212.03125 C 164.773438 212.007812 164.671875 211.878906 164.59375 211.851562 C 164.074219 211.597656 164.007812 212.121094 163.84375 212.375 Z M 163.84375 212.375 " fill-opacity="1" fill-rule="nonzero"/><path fill="#000000" d="M 149.582031 187.765625 C 149.429688 188.046875 149.339844 188.363281 149.1875 188.773438 C 149.773438 188.734375 150.21875 188.097656 150.027344 187.804688 C 149.960938 187.726562 149.605469 187.714844 149.582031 187.765625 Z M 149.582031 187.765625 " fill-opacity="1" fill-rule="nonzero"/><path fill="#000000" d="M 236.191406 183.738281 C 235.109375 183.230469 233.988281 182.808594 232.839844 182.4375 C 226.246094 180.296875 219.496094 178.753906 212.695312 177.492188 C 208.1875 176.652344 203.691406 175.796875 199.121094 175.429688 C 198.941406 175.417969 198.761719 175.519531 198.585938 175.582031 C 198.710938 175.734375 198.8125 175.976562 198.964844 176.027344 C 199.527344 176.207031 200.113281 176.359375 200.699219 176.460938 C 204.316406 177.125 207.957031 177.660156 211.535156 178.449219 C 217.304688 179.738281 223.0625 181.136719 228.792969 182.605469 C 231.085938 183.191406 233.324219 184.007812 235.554688 184.796875 C 236.675781 185.203125 236.902344 185.703125 236.421875 186.746094 C 235.3125 189.117188 234.113281 191.449219 232.917969 193.78125 C 232.625 194.355469 232.101562 194.671875 231.414062 194.519531 C 230.792969 194.378906 230.15625 194.277344 229.554688 194.0625 C 221.152344 190.9375 212.503906 188.65625 203.820312 186.480469 C 201.804688 185.980469 199.820312 185.421875 197.820312 184.910156 C 197.347656 184.785156 197.082031 184.566406 197.132812 184.019531 C 197.296875 182.222656 197.398438 180.425781 197.589844 178.628906 C 197.667969 177.964844 197.921875 177.316406 198.089844 176.652344 C 198.140625 176.4375 198.175781 176.230469 198.214844 176.015625 C 197.960938 176.039062 197.605469 175.976562 197.453125 176.117188 C 197.195312 176.359375 196.980469 176.703125 196.929688 177.046875 C 196.574219 179.046875 196.265625 181.0625 195.949219 183.0625 C 196.011719 183.074219 196.074219 183.074219 196.125 183.089844 C 196.125 183.28125 196.125 183.484375 196.125 183.675781 C 196.140625 185.078125 196.253906 185.371094 197.605469 185.789062 C 200.761719 186.757812 203.933594 187.6875 207.128906 188.519531 C 212.9375 190.035156 218.742188 191.488281 224.421875 193.460938 C 226.5 194.1875 228.550781 194.992188 230.636719 195.691406 C 232.242188 196.226562 233.199219 195.933594 234.101562 194.546875 C 235.617188 192.226562 236.839844 189.726562 237.71875 187.101562 C 238.242188 185.460938 237.757812 184.476562 236.191406 183.738281 Z M 236.191406 183.738281 " fill-opacity="1" fill-rule="nonzero"/><path fill="#000000" d="M 216.058594 182.171875 C 214.554688 182.414062 213.320312 183.917969 213.382812 185.40625 C 213.460938 187.382812 215.089844 188.898438 217.113281 188.898438 C 218.691406 188.898438 219.738281 188.019531 220.105469 186.503906 C 220.375 185.460938 220.003906 184.667969 219.457031 183.816406 C 218.578125 182.4375 217.636719 181.917969 216.058594 182.171875 Z M 218.871094 186.351562 C 218.566406 187.152344 217.890625 187.5625 216.921875 187.535156 C 215.980469 187.484375 215.214844 187.117188 214.757812 186.25 C 214.351562 185.484375 214.351562 184.683594 214.910156 184.019531 C 215.253906 183.609375 215.828125 183.101562 216.234375 183.140625 C 217.101562 183.242188 217.992188 183.523438 218.605469 184.285156 C 219.113281 184.9375 219.152344 185.625 218.871094 186.351562 Z M 218.871094 186.351562 " fill-opacity="1" fill-rule="nonzero"/><path fill="#000000" d="M 235.527344 186.757812 C 235.679688 186.808594 235.859375 186.796875 236.023438 186.808594 C 236.050781 186.695312 236.0625 186.59375 236.089844 186.480469 C 224.117188 182.566406 212.082031 179.011719 199.363281 178.347656 C 199.550781 178.410156 199.742188 178.5 199.933594 178.511719 C 201.09375 178.652344 202.265625 178.742188 203.425781 178.921875 C 205.730469 179.277344 208.058594 179.597656 210.339844 180.09375 C 214.695312 181.050781 219.050781 182.03125 223.355469 183.179688 C 227.441406 184.261719 231.464844 185.5625 235.527344 186.757812 Z M 235.527344 186.757812 " fill-opacity="1" fill-rule="nonzero"/><path fill="#000000" d="M 184.078125 172.585938 C 183.097656 172.789062 182.246094 173.238281 181.582031 174.039062 C 180.859375 174.933594 180.71875 175.914062 181.125 176.933594 C 181.546875 177.976562 182.410156 178.4375 183.53125 178.410156 C 185.214844 178.410156 186.523438 177.390625 186.96875 175.773438 C 187.453125 173.964844 185.492188 172.292969 184.078125 172.585938 Z M 186.066406 175.925781 C 185.695312 176.90625 184.5625 177.660156 183.507812 177.671875 C 182.539062 177.671875 181.964844 177.238281 181.671875 176.296875 C 181.417969 175.480469 181.648438 174.945312 182.527344 174.382812 C 182.972656 174.105469 183.441406 173.847656 183.925781 173.621094 C 184.601562 173.3125 185.199219 173.542969 185.671875 174.039062 C 186.179688 174.550781 186.347656 175.210938 186.066406 175.925781 Z M 186.066406 175.925781 " fill-opacity="1" fill-rule="nonzero"/><path fill="#000000" d="M 154.75 174.398438 C 157.464844 174.242188 160.1875 174.28125 162.902344 174.242188 C 164.417969 174.230469 165.917969 174.242188 167.433594 174.242188 C 167.613281 174.242188 167.792969 174.207031 168.019531 174.179688 C 167.230469 173.222656 148.460938 173.9375 146.523438 175.085938 C 146.691406 175.097656 146.867188 175.148438 147.035156 175.136719 C 149.605469 174.894531 152.179688 174.550781 154.75 174.398438 Z M 154.75 174.398438 " fill-opacity="1" fill-rule="nonzero"/><path fill="#000000" d="M 152.828125 176.207031 C 151.007812 176.472656 149.515625 178.042969 149.339844 179.863281 C 149.238281 180.832031 149.949219 181.675781 150.867188 181.6875 C 152.382812 181.699219 154.597656 179.800781 154.867188 178.269531 C 155.070312 177.035156 154.078125 176.027344 152.828125 176.207031 Z M 154.0625 178.460938 C 153.578125 179.671875 151.9375 181 150.90625 181.011719 C 150.28125 181.023438 149.808594 180.464844 149.949219 179.800781 C 150.253906 178.359375 151.058594 177.277344 152.484375 176.84375 C 152.890625 176.714844 153.492188 176.882812 153.871094 177.125 C 154.304688 177.40625 154.265625 177.964844 154.0625 178.460938 Z M 154.0625 178.460938 " fill-opacity="1" fill-rule="nonzero"/><path fill="#000000" d="M 162.046875 175.875 C 162.734375 175.875 163.421875 175.875 164.097656 175.875 C 164.097656 175.824219 164.097656 175.761719 164.097656 175.710938 C 163.421875 175.683594 162.710938 175.3125 162.046875 175.875 Z M 162.046875 175.875 " fill-opacity="1" fill-rule="nonzero"/><path fill="#000000" d="M 122.441406 145.757812 C 122.40625 144.738281 121.511719 144.015625 120.253906 143.886719 C 119.742188 144.078125 119.183594 144.191406 118.722656 144.460938 C 118.011719 144.867188 117.550781 145.519531 117.667969 146.371094 C 117.792969 147.25 118.355469 147.835938 119.234375 148.054688 C 119.566406 148.128906 119.910156 148.15625 120.253906 148.144531 C 121.550781 148.066406 122.492188 147.035156 122.441406 145.757812 Z M 122.441406 145.757812 " fill-opacity="1" fill-rule="nonzero"/><path fill="#000000" d="M 122.035156 149.097656 C 121.460938 149.125 120.992188 149.671875 121.015625 150.285156 C 121.042969 150.859375 121.488281 151.277344 122.0625 151.265625 C 122.660156 151.238281 123.230469 150.703125 123.207031 150.183594 C 123.207031 149.699219 122.53125 149.085938 122.035156 149.097656 Z M 122.035156 149.097656 " fill-opacity="1" fill-rule="nonzero"/><path fill="#000000" d="M 108.433594 175.175781 C 108.664062 174.613281 108.917969 174.039062 109.058594 173.453125 C 109.109375 173.261719 108.84375 172.996094 108.714844 172.753906 C 108.652344 172.777344 108.585938 172.816406 108.523438 172.84375 C 108.359375 173.515625 108.179688 174.191406 108.027344 174.867188 C 108 174.984375 108.039062 175.148438 108.117188 175.226562 C 108.152344 175.277344 108.410156 175.238281 108.433594 175.175781 Z M 108.433594 175.175781 " fill-opacity="1" fill-rule="nonzero"/><path fill="#000000" d="M 192.496094 50.304688 C 188.625 52.585938 185.800781 55.769531 184.257812 60.027344 C 183.429688 62.308594 183.277344 64.667969 183.542969 67.0625 C 183.582031 67.40625 183.734375 67.738281 183.835938 68.070312 C 183.914062 68.054688 183.992188 68.054688 184.066406 68.042969 C 183.800781 64.078125 184.871094 60.472656 186.984375 57.199219 C 189.070312 53.949219 191.65625 51.183594 195.132812 49.246094 C 194.929688 49.285156 194.699219 49.269531 194.523438 49.347656 C 193.835938 49.652344 193.132812 49.933594 192.496094 50.304688 Z M 192.496094 50.304688 " fill-opacity="1" fill-rule="nonzero"/><path fill="#000000" d="M 210.210938 55.554688 C 210.160156 55.386719 210.019531 55.144531 209.878906 55.121094 C 208.824219 54.890625 207.753906 54.699219 206.695312 54.496094 C 206.695312 54.519531 206.683594 54.558594 206.683594 54.585938 C 206.492188 54.585938 206.277344 54.535156 206.109375 54.597656 C 205.882812 54.6875 205.679688 54.851562 205.460938 54.980469 C 205.613281 55.160156 205.765625 55.335938 205.933594 55.488281 C 206.007812 55.554688 206.125 55.59375 206.226562 55.605469 C 207.433594 55.695312 208.65625 55.78125 209.867188 55.835938 C 209.996094 55.847656 210.238281 55.617188 210.210938 55.554688 Z M 210.210938 55.554688 " fill-opacity="1" fill-rule="nonzero"/><path fill="#000000" d="M 210.53125 58.460938 C 210.644531 58.460938 210.757812 58.269531 210.875 58.179688 C 210.773438 58.0625 210.671875 57.875 210.554688 57.859375 C 209.308594 57.707031 208.070312 57.578125 206.746094 57.441406 C 206.886719 57.910156 206.683594 58.484375 207.371094 58.484375 C 208.429688 58.472656 209.484375 58.484375 210.53125 58.460938 Z M 210.53125 58.460938 " fill-opacity="1" fill-rule="nonzero"/><path fill="#000000" d="M 210.605469 59.9375 C 209.636719 59.808594 208.671875 59.773438 207.523438 59.683594 C 207.726562 60.332031 207.96875 60.714844 208.441406 60.792969 C 209.117188 60.894531 209.804688 60.933594 210.480469 60.917969 C 210.683594 60.917969 210.886719 60.652344 211.089844 60.511719 C 210.925781 60.308594 210.785156 59.964844 210.605469 59.9375 Z M 210.605469 59.9375 " fill-opacity="1" fill-rule="nonzero"/><path fill="#000000" d="M 217.050781 59.734375 C 217.902344 59.976562 218.757812 60.179688 219.671875 60.421875 C 219.671875 60.21875 219.710938 60.078125 219.660156 59.976562 C 219.445312 59.542969 217.507812 58.945312 217.0625 59.160156 C 216.960938 59.210938 216.847656 59.339844 216.847656 59.441406 C 216.847656 59.542969 216.960938 59.707031 217.050781 59.734375 Z M 217.050781 59.734375 " fill-opacity="1" fill-rule="nonzero"/><path fill="#000000" d="M 218.769531 57.515625 C 218.691406 57.375 218.628906 57.171875 218.515625 57.121094 C 217.917969 56.917969 217.304688 56.75 216.707031 56.574219 C 216.695312 56.597656 216.695312 56.636719 216.679688 56.664062 C 216.617188 56.664062 216.539062 56.636719 216.488281 56.664062 C 216.300781 56.75 216.121094 56.867188 215.941406 56.96875 C 216.121094 57.082031 216.273438 57.25 216.464844 57.285156 C 217.074219 57.425781 217.699219 57.542969 218.324219 57.644531 C 218.464844 57.667969 218.628906 57.554688 218.769531 57.515625 Z M 218.769531 57.515625 " fill-opacity="1" fill-rule="nonzero"/><path fill="#000000" d="M 217.738281 61.125 C 217.519531 61.046875 217.242188 61.175781 216.988281 61.210938 C 216.988281 61.300781 216.972656 61.390625 216.972656 61.480469 C 217.867188 61.796875 218.742188 62.117188 219.636719 62.4375 C 219.671875 62.359375 219.699219 62.28125 219.738281 62.195312 C 219.328125 61.378906 218.449219 61.378906 217.738281 61.125 Z M 217.738281 61.125 " fill-opacity="1" fill-rule="nonzero"/><path fill="#000000" d="M 185.367188 69.34375 C 185.238281 68.003906 185.109375 66.691406 184.996094 65.429688 C 184.523438 66.117188 184.753906 68.808594 185.367188 69.34375 Z M 185.367188 69.34375 " fill-opacity="1" fill-rule="nonzero"/><path fill="#000000" d="M 151.707031 178.855469 C 151.757812 178.640625 151.808594 178.4375 151.859375 178.246094 C 151.796875 178.21875 151.734375 178.207031 151.683594 178.183594 C 151.402344 178.460938 150.980469 178.894531 151.375 179.164062 C 151.707031 179.394531 151.886719 179.621094 152.0625 179.941406 C 152.0625 179.519531 152.472656 178.996094 151.707031 178.855469 Z M 151.707031 178.855469 " fill-opacity="1" fill-rule="nonzero"/></svg>