<svg xmlns="http://www.w3.org/2000/svg" xmlns:xlink="http://www.w3.org/1999/xlink" width="50" zoomAndPan="magnify" viewBox="0 0 37.5 37.499999" height="50" preserveAspectRatio="xMidYMid meet" version="1.0"><defs><clipPath id="08bf8b48f6"><path d="M 12 19 L 16 19 L 16 22.390625 L 12 22.390625 Z M 12 19 " clip-rule="nonzero"/></clipPath><clipPath id="4121532243"><path d="M 19 19 L 22 19 L 22 22.390625 L 19 22.390625 Z M 19 19 " clip-rule="nonzero"/></clipPath><clipPath id="a18489862a"><path d="M 11.101562 15 L 20 15 L 20 22 L 11.101562 22 Z M 11.101562 15 " clip-rule="nonzero"/></clipPath><clipPath id="7a67529cf7"><path d="M 18 14.25 L 23 14.25 L 23 20 L 18 20 Z M 18 14.25 " clip-rule="nonzero"/></clipPath><clipPath id="3b2d4b90a4"><path d="M 16 14.25 L 20 14.25 L 20 20 L 16 20 Z M 16 14.25 " clip-rule="nonzero"/></clipPath><clipPath id="832a39fc25"><path d="M 21 14.25 L 25.90625 14.25 L 25.90625 19 L 21 19 Z M 21 14.25 " clip-rule="nonzero"/></clipPath><clipPath id="b5f7fdcf69"><path d="M 20 14.25 L 25.90625 14.25 L 25.90625 20 L 20 20 Z M 20 14.25 " clip-rule="nonzero"/></clipPath></defs><g clip-path="url(#08bf8b48f6)"><path fill="#7ed957" d="M 13.820312 19.878906 C 13.027344 19.882812 12.386719 20.527344 12.386719 21.316406 C 12.390625 22.109375 13.03125 22.753906 13.824219 22.75 C 14.617188 22.75 15.257812 22.105469 15.257812 21.316406 C 15.257812 20.523438 14.617188 19.878906 13.824219 19.878906 C 13.820312 19.878906 13.820312 19.878906 13.820312 19.878906 Z M 13.820312 22.136719 C 13.367188 22.136719 13 21.769531 13 21.316406 C 13 20.863281 13.367188 20.496094 13.820312 20.496094 C 14.273438 20.496094 14.640625 20.863281 14.640625 21.316406 C 14.640625 21.769531 14.273438 22.136719 13.820312 22.136719 Z M 13.820312 22.136719 " fill-opacity="1" fill-rule="evenodd"/></g><g clip-path="url(#4121532243)"><path fill="#7ed957" d="M 20.441406 19.878906 C 19.648438 19.882812 19.007812 20.527344 19.007812 21.316406 C 19.011719 22.109375 19.652344 22.753906 20.445312 22.75 C 21.238281 22.75 21.878906 22.105469 21.878906 21.316406 C 21.878906 20.523438 21.238281 19.878906 20.445312 19.878906 C 20.441406 19.878906 20.441406 19.878906 20.441406 19.878906 Z M 20.441406 22.136719 C 19.988281 22.136719 19.621094 21.765625 19.621094 21.3125 C 19.625 20.859375 19.992188 20.492188 20.445312 20.496094 C 20.898438 20.496094 21.265625 20.863281 21.265625 21.316406 C 21.265625 21.769531 20.898438 22.136719 20.445312 22.136719 C 20.441406 22.136719 20.441406 22.136719 20.441406 22.136719 Z M 20.441406 22.136719 " fill-opacity="1" fill-rule="evenodd"/></g><g clip-path="url(#a18489862a)"><path fill="#7ed957" d="M 19.8125 19.589844 L 16.542969 19.589844 L 16.542969 15.25 C 16.542969 15.160156 16.472656 15.085938 16.382812 15.085938 L 12.902344 15.085938 C 12.800781 15.089844 12.710938 15.144531 12.660156 15.230469 L 11.179688 18.058594 C 11.136719 18.15625 11.109375 18.261719 11.105469 18.367188 L 11.105469 21.160156 C 11.105469 21.25 11.175781 21.320312 11.265625 21.324219 C 11.265625 21.324219 11.265625 21.324219 11.269531 21.324219 L 11.984375 21.324219 C 12.023438 20.304688 12.878906 19.511719 13.894531 19.550781 C 14.855469 19.585938 15.628906 20.359375 15.664062 21.324219 L 18.597656 21.324219 C 18.597656 20.546875 19.082031 19.855469 19.8125 19.589844 Z M 16.054688 18.203125 L 11.65625 18.203125 L 13.035156 15.574219 L 16.054688 15.574219 Z M 16.054688 18.203125 " fill-opacity="1" fill-rule="evenodd"/></g><path fill="#7ed957" d="M 23.796875 19.589844 L 21.0625 19.589844 C 21.789062 19.855469 22.277344 20.539062 22.277344 21.308594 L 23.796875 21.308594 C 23.886719 21.308594 23.960938 21.238281 23.960938 21.152344 C 23.960938 21.148438 23.960938 21.148438 23.960938 21.144531 L 23.960938 19.765625 C 23.96875 19.675781 23.902344 19.597656 23.816406 19.59375 C 23.808594 19.589844 23.804688 19.589844 23.796875 19.589844 Z M 23.796875 19.589844 " fill-opacity="1" fill-rule="evenodd"/><g clip-path="url(#7a67529cf7)"><path fill="#7ed957" d="M 19.511719 19.144531 L 22.007812 18.324219 L 20.925781 14.269531 L 18.351562 14.808594 Z M 19.511719 19.144531 " fill-opacity="1" fill-rule="evenodd"/></g><g clip-path="url(#3b2d4b90a4)"><path fill="#7ed957" d="M 17.445312 18.851562 C 17.472656 18.945312 17.554688 19.011719 17.648438 19.027344 L 19.183594 19.175781 L 18.046875 14.941406 L 16.796875 15.828125 C 16.71875 15.890625 16.683594 15.988281 16.707031 16.085938 Z M 17.445312 18.851562 " fill-opacity="1" fill-rule="evenodd"/></g><g clip-path="url(#832a39fc25)"><path fill="#7ed957" d="M 24.90625 16.402344 C 24.984375 16.34375 25.019531 16.242188 25 16.148438 L 24.59375 14.648438 C 24.5625 14.558594 24.480469 14.496094 24.386719 14.480469 L 21.253906 14.25 L 22.304688 18.179688 Z M 24.90625 16.402344 " fill-opacity="1" fill-rule="evenodd"/></g><g clip-path="url(#b5f7fdcf69)"><path fill="#7ed957" d="M 25.890625 16.277344 L 25.425781 14.78125 L 25.230469 14.835938 L 25.558594 16.300781 L 24.964844 17.542969 L 22.90625 18.523438 L 22.515625 18.523438 C 22.398438 18.597656 22.269531 18.660156 22.136719 18.707031 L 20.707031 19.175781 L 24.203125 19.175781 L 24.203125 18.773438 L 25.355469 18.074219 L 25.484375 17.996094 L 25.507812 17.898438 L 25.886719 16.367188 L 25.902344 16.304688 Z M 25.890625 16.277344 " fill-opacity="1" fill-rule="evenodd"/></g></svg>