<svg xmlns="http://www.w3.org/2000/svg" xmlns:xlink="http://www.w3.org/1999/xlink" width="50" zoomAndPan="magnify" viewBox="0 0 37.5 37.499999" height="50" preserveAspectRatio="xMidYMid meet" version="1.0"><defs><filter x="0%" y="0%" width="100%" height="100%" id="35675d5297"><feColorMatrix values="0 0 0 0 1 0 0 0 0 1 0 0 0 0 1 0 0 0 1 0" color-interpolation-filters="sRGB"/></filter><g/><mask id="3936b0b7bd"><g filter="url(#35675d5297)"><rect x="-3.75" width="45" fill="#000000" y="-3.75" height="44.999999" fill-opacity="0.98"/></g></mask><clipPath id="87703f6ca1"><path d="M 8 6 L 14.164062 6 L 14.164062 15.90625 L 8 15.90625 Z M 8 6 " clip-rule="nonzero"/></clipPath><clipPath id="20be41dffd"><path d="M 0.84375 6 L 8 6 L 8 15.90625 L 0.84375 15.90625 Z M 0.84375 6 " clip-rule="nonzero"/></clipPath><clipPath id="a238cb40ae"><path d="M 8 1.101562 L 11 1.101562 L 11 4 L 8 4 Z M 8 1.101562 " clip-rule="nonzero"/></clipPath><clipPath id="f7d62c34dd"><path d="M 7 1.101562 L 8 1.101562 L 8 3 L 7 3 Z M 7 1.101562 " clip-rule="nonzero"/></clipPath><clipPath id="e4731e2466"><path d="M 4 1.101562 L 7 1.101562 L 7 4 L 4 4 Z M 4 1.101562 " clip-rule="nonzero"/></clipPath><clipPath id="f7c9520dac"><rect x="0" width="15" y="0" height="17"/></clipPath><clipPath id="6e47466b72"><path d="M 27 34 L 33 34 L 33 37.007812 L 27 37.007812 Z M 27 34 " clip-rule="nonzero"/></clipPath></defs><g mask="url(#3936b0b7bd)"><g transform="matrix(1, 0, 0, 1, 11, 10)"><g clip-path="url(#f7c9520dac)"><path fill="#7ed957" d="M 9.527344 6.574219 L 6.855469 10.113281 C 6.738281 10.332031 6.40625 10.238281 6.414062 9.988281 L 7.015625 7.859375 C 7.019531 7.726562 6.914062 7.613281 6.78125 7.613281 L 5.695312 7.613281 C 5.511719 7.613281 5.402344 7.421875 5.488281 7.265625 L 8.152344 3.730469 C 8.273438 3.511719 8.605469 3.605469 8.597656 3.855469 L 8 5.980469 C 7.996094 6.113281 8.101562 6.226562 8.234375 6.226562 L 9.324219 6.226562 C 9.496094 6.226562 9.609375 6.417969 9.527344 6.574219 Z M 9.527344 6.574219 " fill-opacity="1" fill-rule="nonzero"/><g clip-path="url(#87703f6ca1)"><path fill="#7ed957" d="M 12.464844 6.5 L 10.1875 6.5 C 10.183594 6.632812 10.144531 6.765625 10.082031 6.882812 L 10.03125 6.957031 L 9.738281 7.34375 L 12.464844 7.34375 C 12.929688 7.34375 13.308594 7.722656 13.308594 8.1875 L 13.308594 12.320312 C 13.308594 12.785156 12.929688 13.164062 12.464844 13.164062 L 12.398438 13.164062 C 12.207031 12.285156 11.425781 11.628906 10.492188 11.628906 L 9.078125 11.628906 C 8.929688 11.628906 8.804688 11.75 8.804688 11.902344 L 8.804688 12.261719 L 8.84375 12.261719 C 8.996094 12.261719 9.121094 12.382812 9.121094 12.535156 L 9.121094 12.769531 C 9.121094 12.917969 9 13.042969 8.84375 13.042969 L 8.804688 13.042969 L 8.804688 14.132812 L 8.84375 14.132812 C 8.996094 14.132812 9.121094 14.253906 9.121094 14.40625 L 9.121094 14.640625 C 9.121094 14.789062 9 14.914062 8.84375 14.914062 L 8.804688 14.914062 L 8.804688 15.273438 C 8.804688 15.421875 8.925781 15.546875 9.078125 15.546875 L 10.492188 15.546875 C 11.425781 15.546875 12.207031 14.890625 12.398438 14.011719 L 12.464844 14.011719 C 13.398438 14.011719 14.15625 13.253906 14.15625 12.320312 L 14.15625 8.1875 C 14.15625 7.253906 13.398438 6.5 12.464844 6.5 Z M 12.464844 6.5 " fill-opacity="1" fill-rule="nonzero"/></g><g clip-path="url(#20be41dffd)"><path fill="#7ed957" d="M 7.578125 12.964844 C 7.757812 12.964844 7.902344 12.820312 7.902344 12.640625 C 7.902344 12.460938 7.757812 12.316406 7.578125 12.316406 L 6.097656 12.316406 L 6.097656 11.65625 C 6.097656 11.445312 5.925781 11.277344 5.71875 11.277344 L 5.589844 11.277344 C 5.378906 11.277344 5.210938 11.445312 5.210938 11.65625 L 5.210938 11.902344 C 4.796875 12.136719 3.976562 12.515625 2.914062 12.589844 C 2.714844 12.601562 2.5625 12.765625 2.5625 12.960938 L 2.5625 13.160156 L 2.546875 13.160156 C 2.082031 13.160156 1.703125 12.78125 1.703125 12.316406 L 1.703125 8.1875 C 1.703125 7.722656 2.082031 7.34375 2.546875 7.34375 L 4.824219 7.34375 C 4.828125 7.210938 4.863281 7.078125 4.929688 6.957031 L 4.976562 6.886719 L 5.269531 6.503906 L 2.542969 6.503906 C 1.609375 6.503906 0.847656 7.265625 0.847656 8.199219 L 0.847656 12.328125 C 0.847656 13.261719 1.609375 14.019531 2.542969 14.019531 L 2.558594 14.019531 L 2.558594 14.21875 C 2.558594 14.414062 2.710938 14.582031 2.910156 14.59375 C 3.972656 14.664062 4.792969 15.042969 5.207031 15.277344 L 5.207031 15.527344 C 5.207031 15.734375 5.375 15.90625 5.585938 15.90625 L 5.714844 15.90625 C 5.921875 15.90625 6.09375 15.734375 6.09375 15.527344 L 6.09375 14.859375 L 7.578125 14.859375 C 7.757812 14.859375 7.902344 14.714844 7.902344 14.53125 C 7.902344 14.351562 7.757812 14.207031 7.578125 14.207031 L 6.097656 14.207031 L 6.097656 12.964844 Z M 7.578125 12.964844 " fill-opacity="1" fill-rule="nonzero"/></g><g clip-path="url(#a238cb40ae)"><path fill="#7ed957" d="M 10.027344 1.78125 C 9.9375 1.722656 9.828125 1.703125 9.71875 1.722656 C 9.609375 1.746094 9.519531 1.804688 9.457031 1.898438 L 8.886719 2.761719 C 8.761719 2.949219 8.8125 3.207031 9.003906 3.335938 C 9.070312 3.378906 9.152344 3.402344 9.230469 3.402344 C 9.371094 3.402344 9.5 3.335938 9.578125 3.21875 L 10.148438 2.359375 C 10.269531 2.167969 10.21875 1.910156 10.027344 1.78125 Z M 10.027344 1.78125 " fill-opacity="1" fill-rule="nonzero"/></g><g clip-path="url(#f7d62c34dd)"><path fill="#7ed957" d="M 7.503906 1.101562 C 7.277344 1.101562 7.089844 1.285156 7.089844 1.515625 L 7.089844 2.550781 C 7.089844 2.78125 7.277344 2.964844 7.503906 2.964844 C 7.734375 2.964844 7.917969 2.78125 7.917969 2.550781 L 7.917969 1.515625 C 7.917969 1.292969 7.734375 1.101562 7.503906 1.101562 Z M 7.503906 1.101562 " fill-opacity="1" fill-rule="nonzero"/></g><g clip-path="url(#e4731e2466)"><path fill="#7ed957" d="M 5.558594 1.898438 C 5.496094 1.804688 5.40625 1.742188 5.296875 1.722656 C 5.1875 1.703125 5.078125 1.722656 4.984375 1.78125 C 4.796875 1.90625 4.746094 2.164062 4.871094 2.359375 L 5.441406 3.21875 C 5.515625 3.335938 5.644531 3.402344 5.785156 3.402344 C 5.867188 3.402344 5.949219 3.378906 6.015625 3.335938 C 6.207031 3.210938 6.257812 2.953125 6.132812 2.761719 Z M 5.558594 1.898438 " fill-opacity="1" fill-rule="nonzero"/></g><path fill="#7ed957" d="M 4.984375 3.871094 L 4.03125 3.46875 C 3.929688 3.425781 3.820312 3.425781 3.714844 3.464844 C 3.609375 3.503906 3.53125 3.585938 3.488281 3.6875 C 3.398438 3.894531 3.5 4.140625 3.710938 4.230469 L 4.664062 4.632812 C 4.714844 4.652344 4.769531 4.664062 4.824219 4.664062 C 4.992188 4.664062 5.144531 4.5625 5.207031 4.410156 C 5.296875 4.199219 5.195312 3.960938 4.984375 3.871094 Z M 4.984375 3.871094 " fill-opacity="1" fill-rule="nonzero"/><path fill="#7ed957" d="M 11.523438 3.6875 C 11.476562 3.585938 11.398438 3.503906 11.296875 3.464844 C 11.195312 3.425781 11.082031 3.425781 10.980469 3.46875 L 10.023438 3.871094 C 9.925781 3.914062 9.84375 3.996094 9.804688 4.097656 C 9.761719 4.199219 9.761719 4.308594 9.808594 4.414062 C 9.871094 4.566406 10.019531 4.667969 10.191406 4.667969 C 10.246094 4.667969 10.296875 4.65625 10.351562 4.636719 L 11.304688 4.234375 C 11.511719 4.140625 11.609375 3.898438 11.523438 3.6875 Z M 11.523438 3.6875 " fill-opacity="1" fill-rule="nonzero"/></g></g></g><g clip-path="url(#6e47466b72)"><g fill="#000000" fill-opacity="1"><g transform="translate(26.91072, 35.822366)"><g><path d="M 0.640625 1.28125 C 0.710938 1.1875 0.835938 1.023438 1.015625 0.796875 C 1.191406 0.578125 1.378906 0.34375 1.578125 0.09375 C 1.773438 -0.15625 1.96875 -0.390625 2.15625 -0.609375 C 2.351562 -0.828125 2.492188 -0.972656 2.578125 -1.046875 C 2.679688 -1.179688 2.769531 -1.242188 2.84375 -1.234375 C 2.925781 -1.234375 3.007812 -1.203125 3.09375 -1.140625 C 3.582031 -0.710938 4.070312 -0.3125 4.5625 0.0625 C 5.050781 0.4375 5.457031 0.796875 5.78125 1.140625 C 5.851562 1.203125 5.878906 1.265625 5.859375 1.328125 C 5.847656 1.390625 5.8125 1.457031 5.75 1.53125 C 5.445312 1.96875 5.132812 2.378906 4.8125 2.765625 C 4.488281 3.160156 4.171875 3.566406 3.859375 3.984375 C 3.722656 4.234375 3.539062 4.28125 3.3125 4.125 C 3.144531 4.03125 2.925781 3.878906 2.65625 3.671875 C 2.394531 3.472656 2.132812 3.257812 1.875 3.03125 C 1.613281 2.800781 1.367188 2.578125 1.140625 2.359375 C 0.910156 2.140625 0.738281 1.953125 0.625 1.796875 C 0.539062 1.691406 0.503906 1.601562 0.515625 1.53125 C 0.535156 1.46875 0.578125 1.382812 0.640625 1.28125 Z M 0.640625 1.28125 "/></g></g></g></g></svg>